<svg width="84" height="85" viewBox="0 0 84 85" fill="none" xmlns="http://www.w3.org/2000/svg">
<path d="M41.9991 84.0018C18.8417 84.0018 0 65.16 0 42.0009C0 18.8418 18.8417 0 41.9991 0C65.1583 0 84 18.8418 84 42.0009C84 65.16 65.1583 84.0018 41.9991 84.0018ZM41.9991 1.55462C19.6964 1.55462 1.55285 19.6982 1.55285 42.0009C1.55285 64.3036 19.6964 82.4454 41.9991 82.4454C64.3018 82.4454 82.4454 64.3036 82.4454 42.0009C82.4454 19.6982 64.3001 1.55462 41.9991 1.55462Z" fill="#4FAB1A"/>
<path d="M32.4022 18.2317V59.9931C32.4022 61.6416 32.8311 63.1869 33.5756 64.529C35.148 67.3634 38.1433 69.282 41.5849 69.282C45.0265 69.282 48.0218 67.3634 49.5942 64.529C50.3387 63.1867 50.7676 61.6416 50.7676 59.9931V18.2317H32.4022Z" fill="#9ADE72"/>
<path d="M41.5846 70.0001C38.013 70.0001 34.7078 68.0386 32.9559 64.8802C32.1292 63.39 31.6921 61.6994 31.6921 59.9932V17.5133H51.4783V59.9932C51.4783 61.6965 51.0412 63.3873 50.2146 64.8802C48.4615 68.0386 45.1547 70.0001 41.5846 70.0001ZM33.1126 18.9502V59.9932C33.1126 61.454 33.4872 62.9004 34.1958 64.1774C35.6954 66.8826 38.5261 68.5634 41.5846 68.5634C44.6416 68.5634 47.4741 66.8826 48.9761 64.1774C49.6836 62.8991 50.058 61.4513 50.058 59.9932V18.9502H33.1126Z" fill="#4AA713"/>
<path d="M32.317 29.76C38.4388 29.76 44.5608 29.76 50.6823 29.76C51.5507 29.76 51.552 28.3951 50.6823 28.3951C44.5608 28.3951 38.4388 28.3951 32.317 28.3951C31.4489 28.3949 31.4475 29.76 32.317 29.76Z" fill="#4AA713"/>
<path d="M53.0174 15.5898C52.7127 15.0787 52.1827 14.7178 51.553 14.7178H31.4468C30.8168 14.7178 30.2868 15.0787 29.9825 15.5898C29.825 15.854 29.71 16.1456 29.71 16.4747C29.71 17.4409 30.4914 18.2315 31.4468 18.2315H51.553C52.5081 18.2315 53.2899 17.4409 53.2899 16.4747C53.2897 16.1456 53.1748 15.854 53.0174 15.5898Z" fill="#9ADE72"/>
<path d="M51.5532 18.95H31.4468C30.097 18.95 29 17.8402 29 16.4749C29 16.0527 29.1221 15.6429 29.3731 15.2193C29.8294 14.4559 30.6049 14 31.4468 14H51.5532C52.3953 14 53.1706 14.4559 53.6254 15.2177L53.6269 15.2193C53.8779 15.6429 54 16.0527 54 16.4749C54 17.8402 52.9027 18.95 51.5532 18.95ZM31.4468 15.4367C31.107 15.4367 30.7863 15.6331 30.5895 15.9615C30.4744 16.155 30.4202 16.3193 30.4202 16.4749C30.4202 17.0474 30.8807 17.5132 31.4466 17.5132H51.553C52.1192 17.5132 52.5794 17.0474 52.5794 16.4749C52.5794 16.3191 52.5254 16.1565 52.4101 15.9615C52.2133 15.6331 51.8927 15.4367 51.5528 15.4367H31.4468Z" fill="#4AA713"/>
<path d="M41.5474 57.1841C41.8233 56.7609 46.1974 49.9521 46.1751 43.4865C46.1696 41.8986 46.0192 39.9866 45.2001 38.6984C44.4363 37.4976 43.2862 36.6723 42.058 36.483C40.6549 36.2666 39.177 36.8616 38.1769 38.1032C37.0765 39.4691 36.8316 41.5356 36.8251 43.3832C36.8249 43.4288 36.8249 43.4744 36.8251 43.5198C36.8473 49.9852 41.2686 56.7628 41.5474 57.1841Z" fill="#9ADE72"/>
<path d="M41.5528 58.4819L40.9577 57.5841C40.4639 56.839 36.1377 50.1181 36.1141 43.5223C36.1238 40.775 36.619 38.9004 37.626 37.6504C38.7646 36.236 40.5026 35.5106 42.1642 35.773C43.5873 35.9919 44.9106 36.9165 45.7983 38.3098C46.7636 39.8294 46.88 41.9916 46.8844 43.4859C46.9078 50.0677 42.6275 56.8307 42.1408 57.5799L41.5528 58.4819ZM41.4916 37.1579C40.4694 37.1579 39.443 37.6686 38.7273 38.5567C37.9324 39.543 37.5427 41.123 37.5346 43.3861C37.5526 48.4512 40.2975 53.6989 41.5429 55.8189C42.772 53.6917 45.4822 48.4414 45.4641 43.49C45.4586 41.4302 45.177 39.9908 44.6028 39.0871C43.937 38.0403 42.9704 37.3501 41.9508 37.1929C41.7983 37.169 41.6456 37.1579 41.4916 37.1579Z" fill="#4AA713"/>
<path d="M40.8253 47.3646C40.8253 51.6481 40.8253 55.9315 40.8253 60.2148C40.8253 61.093 42.1745 61.0945 42.1745 60.2148C42.1745 55.9313 42.1745 51.6481 42.1745 47.3646C42.1745 46.4864 40.8253 46.4851 40.8253 47.3646Z" fill="#4AA713"/>
</svg>
