<svg width="84" height="85" viewBox="0 0 84 85" fill="none" xmlns="http://www.w3.org/2000/svg">
<path d="M41.9991 84.0018C18.8417 84.0018 0 65.16 0 42.0009C0 18.8418 18.8417 0 41.9991 0C65.1583 0 84 18.8418 84 42.0009C84 65.16 65.1583 84.0018 41.9991 84.0018ZM41.9991 1.55462C19.6964 1.55462 1.55285 19.6982 1.55285 42.0009C1.55285 64.3036 19.6964 82.4454 41.9991 82.4454C64.3018 82.4454 82.4454 64.3036 82.4454 42.0009C82.4454 19.6982 64.3001 1.55462 41.9991 1.55462Z" fill="#E27B07"/>
<path d="M56.2317 23.7265L57.8511 26.2147L62.6077 33.5402L63.1953 33.5701C63.3045 33.5776 63.4002 33.5267 63.4525 33.431L66.6749 27.0805C66.7123 26.9997 66.7123 26.9115 66.6749 26.8457C66.6674 26.8098 66.645 26.7874 66.6166 26.7575L65.999 25.8035L61.3337 18.6245" fill="#FF9F31"/>
<path d="M63.2164 34.2325C63.194 34.2325 63.1716 34.231 63.1491 34.231L62.2385 34.1847L55.6786 24.0899L56.7866 23.3691L62.9832 32.9002L65.9798 26.9937L60.7806 18.9879L61.8886 18.2686L67.2612 26.5451C67.3898 26.7904 67.3973 27.0939 67.2777 27.3571L64.0418 33.7346C63.8684 34.0486 63.5604 34.2325 63.2164 34.2325ZM63.2164 32.9092L63.2284 32.9107C63.2254 32.9092 63.2194 32.9092 63.2164 32.9092Z" fill="#E27B07"/>
<path d="M66.5586 25.4776C65.0035 23.0837 63.4483 20.6912 61.8932 18.2987C61.4401 17.6019 60.3187 18.2508 60.7747 18.9536C62.3298 21.3461 63.885 23.7401 65.4401 26.1326C65.8932 26.8279 67.0146 26.1789 66.5586 25.4776Z" fill="#E27B07"/>
<path d="M27.2187 60.272L25.5993 57.7839L20.8412 50.4584L20.2536 50.4284C20.1429 50.421 20.0487 50.4733 19.9964 50.5675L16.774 56.9181C16.7381 56.9988 16.7381 57.087 16.774 57.1528C16.7815 57.1887 16.8039 57.2112 16.8338 57.2411L17.4514 58.1965L22.1167 65.3755" fill="#FF9F31"/>
<path d="M21.5633 65.7341L16.1802 57.4367C16.0591 57.1944 16.0561 56.8999 16.1772 56.6412L19.4101 50.2682C19.594 49.9288 19.9155 49.7508 20.3028 49.7688L21.2134 49.8151L27.7734 59.9099L26.6653 60.6307L20.4688 51.0996L17.4722 57.006L22.6714 65.0119L21.5633 65.7341ZM20.2221 51.0876C20.2265 51.0891 20.231 51.0891 20.2355 51.0891L20.2221 51.0876Z" fill="#E27B07"/>
<path d="M16.8935 58.5223C18.4486 60.9148 20.0037 63.3073 21.5589 65.7013C22.0119 66.3981 23.1334 65.7492 22.6774 65.0464C21.1222 62.6524 19.5671 60.2614 18.012 57.8674C17.5589 57.1706 16.4374 57.8195 16.8935 58.5223Z" fill="#E27B07"/>
<path d="M38.3767 58.3907L37.789 58.3608L33.0325 51.0353L28.9802 44.8103C28.9293 44.7161 28.9219 44.6055 28.9877 44.5098L32.8785 38.5495C32.9891 38.3805 33.2313 38.388 33.333 38.5495L41.1804 50.6256L41.798 51.5796C41.8279 51.6095 41.8488 51.6319 41.8563 51.6678C41.8922 51.7336 41.8922 51.8218 41.8563 51.9026L38.6339 58.2531C38.583 58.3473 38.4874 58.3982 38.3767 58.3907Z" fill="#FF9F31"/>
<path d="M38.3993 59.0531C38.3798 59.0531 38.3589 59.0516 38.3395 59.0501L37.4198 59.0038L28.4271 45.1707C28.2237 44.7984 28.2401 44.429 28.442 44.1329L32.3253 38.1861C32.5003 37.92 32.7904 37.7629 33.1059 37.7629C33.1089 37.7629 33.1119 37.7629 33.1134 37.7629C33.4304 37.7644 33.7219 37.9274 33.8924 38.1951L42.453 51.3822C42.5742 51.6244 42.5772 51.919 42.456 52.1792L39.2247 58.5522C39.0512 58.8692 38.7432 59.0531 38.3993 59.0531ZM38.16 57.7193H38.1645L41.1611 51.8114L33.1044 39.4123L29.6727 44.6698L38.16 57.7193ZM29.5485 44.8582L29.5411 44.8701C29.5441 44.8657 29.547 44.8612 29.5485 44.8582ZM32.7799 38.9084C32.7814 38.9098 32.7829 38.9128 32.7829 38.9158L32.7799 38.9084Z" fill="#E27B07"/>
<path d="M38.4755 58.4057L41.6979 52.0537C41.7861 51.8787 41.6665 51.6709 41.4706 51.6604L27.0858 50.8829L20.1685 50.509C20.0608 50.503 19.9606 50.5614 19.9113 50.6571L16.6889 57.0091C16.6007 57.1841 16.7203 57.3919 16.9162 57.4039L20.3778 57.5908L38.2169 58.5553C38.326 58.5598 38.4277 58.5014 38.4755 58.4057Z" fill="#FF9F31"/>
<path d="M38.2362 59.2147C38.2168 59.2147 38.1988 59.2148 38.1794 59.2133L16.8817 58.0634C16.5662 58.0454 16.2821 57.872 16.1251 57.5953C15.9666 57.3217 15.9591 56.9897 16.1012 56.7071L19.3221 50.3566C19.4851 50.0321 19.8036 49.8227 20.1998 49.8482L41.5079 50.9995C41.822 51.016 42.1046 51.1879 42.2631 51.4616C42.4216 51.7352 42.4305 52.0672 42.29 52.3483L39.0676 58.7019C38.9046 59.0189 38.5846 59.2147 38.2362 59.2147ZM38.2497 57.8944H38.2542C38.2527 57.8944 38.2512 57.8944 38.2497 57.8944ZM17.5486 56.7759L37.9999 57.8795L40.8365 52.2885L20.3867 51.1835L17.5486 56.7759ZM20.5034 50.9532L20.5004 50.9562C20.5019 50.9562 20.5019 50.9547 20.5034 50.9532Z" fill="#E27B07"/>
<path d="M38.3769 58.3905L37.7892 58.3606L20.5379 57.4365L17.0733 57.2451C16.8819 57.2302 16.7577 57.0313 16.846 56.8563L20.0758 50.4983C20.1117 50.4041 20.2149 50.3443 20.3256 50.3518L27.2473 50.7256L33.0312 51.0336L41.6277 51.4972C41.6935 51.5046 41.7518 51.533 41.7967 51.5779C41.8266 51.6078 41.8475 51.6302 41.855 51.6661C41.8909 51.7319 41.8909 51.8201 41.855 51.9009L38.6326 58.2515C38.5833 58.3472 38.4876 58.398 38.3769 58.3905Z" fill="#FF9F31"/>
<path d="M38.3992 59.0531C38.3798 59.0531 38.3588 59.0516 38.3379 59.0501L17.0372 57.9047C16.7098 57.8793 16.4301 57.7028 16.2761 57.4292C16.1236 57.16 16.1176 56.8355 16.2567 56.5574L19.4881 50.1994C19.6047 49.8898 19.98 49.6775 20.3718 49.6939L41.665 50.8393C41.9177 50.8678 42.1165 50.9635 42.2646 51.1115L42.4515 51.3821C42.5726 51.6244 42.5756 51.919 42.4545 52.1792L39.2231 58.5521C39.0512 58.8691 38.7431 59.0531 38.3992 59.0531ZM17.7086 56.6172L38.1644 57.7178L41.001 52.1238L20.5452 51.0263L17.7086 56.6172ZM20.2895 51.0128C20.2925 51.0128 20.297 51.0143 20.303 51.0143L20.2895 51.0128ZM20.6918 50.7407L20.6514 50.8199C20.6679 50.7945 20.6798 50.7676 20.6918 50.7407Z" fill="#E27B07"/>
<path d="M50.7474 46.0198L50.1598 45.9899L45.4032 38.6644L41.3509 32.4395C41.3001 32.3438 41.2926 32.2331 41.3584 32.1374L45.2492 26.1771C45.3598 26.0081 45.6006 26.0156 45.7037 26.1771L53.5511 38.2532L54.1672 39.2072C54.1971 39.2371 54.2195 39.258 54.227 39.2954C54.2629 39.3612 54.2629 39.4495 54.227 39.5302L51.0046 45.8808C50.9538 45.975 50.8581 46.0273 50.7474 46.0198Z" fill="#FF9F31"/>
<path d="M50.7653 46.6806C50.7488 46.6806 50.7324 46.6806 50.7144 46.6791L49.7903 46.6328L40.7976 32.7997C40.5957 32.4229 40.6136 32.0565 40.814 31.7634L44.6958 25.8166C44.8708 25.5504 45.1624 25.3934 45.4764 25.3934C45.8442 25.3501 46.0894 25.5534 46.2614 25.8226L54.8161 38.9962C54.9417 39.24 54.9476 39.539 54.831 39.8007L51.5937 46.1827C51.4187 46.4997 51.1092 46.6806 50.7653 46.6806ZM50.5305 45.3468H50.5335L53.5316 39.4388L45.4749 27.0383L42.0431 32.2973L50.5305 45.3468ZM41.9205 32.4872L41.9131 32.5006C41.916 32.4961 41.9175 32.4916 41.9205 32.4872ZM45.1519 26.5373C45.1519 26.5388 45.1519 26.5403 45.1534 26.5418L45.1519 26.5373Z" fill="#E27B07"/>
<path d="M63.3737 33.507L66.5961 27.1549C66.6843 26.98 66.5647 26.7721 66.3688 26.7617L51.984 25.9841L45.0667 25.6103C44.959 25.6043 44.8588 25.6626 44.8095 25.7583L41.5871 32.1104C41.4989 32.2853 41.6185 32.4932 41.8144 32.5051L45.2775 32.692L63.1165 33.655C63.2242 33.661 63.3244 33.6042 63.3737 33.507Z" fill="#FF9F31"/>
<path d="M63.13 34.3178C63.1166 34.3178 63.1001 34.3178 63.0852 34.3163L41.7786 33.1649C41.4645 33.1485 41.1819 32.975 41.0219 32.7014C40.8634 32.4277 40.8545 32.0943 40.998 31.8117L44.2189 25.4596C44.3909 25.1276 44.7452 24.9347 45.1056 24.9527L66.4033 26.1026C66.7173 26.119 67.0014 26.2925 67.1599 26.5676C67.3184 26.8428 67.3274 27.1747 67.1838 27.4573L63.9614 33.8109C63.8014 34.1219 63.4785 34.3178 63.13 34.3178ZM42.447 31.8775L62.8983 32.9825L65.7349 27.39L45.2821 26.2865L42.447 31.8775ZM66.0055 26.8577C66.0055 26.8592 66.0055 26.8592 66.0055 26.8607V26.8577ZM45.0294 26.2716C45.0323 26.2716 45.0338 26.2716 45.0353 26.2716H45.0294Z" fill="#E27B07"/>
<path d="M50.8475 46.0331L54.0699 39.6811C54.1581 39.5061 54.0385 39.2983 53.8426 39.2878L39.4577 38.5102L32.5404 38.1364C32.4328 38.1304 32.3326 38.1887 32.2833 38.2844L29.0609 44.6365C28.9726 44.8115 29.0923 45.0193 29.2881 45.0313L32.7513 45.2182L50.5903 46.1826C50.698 46.1886 50.7981 46.1303 50.8475 46.0331Z" fill="#FF9F31"/>
<path d="M50.6038 46.8438C50.5888 46.8438 50.5739 46.8438 50.5589 46.8438L29.2523 45.6924C28.9383 45.676 28.6542 45.5025 28.4957 45.2289C28.3372 44.9552 28.3282 44.6218 28.4702 44.3392L31.6926 37.9871C31.8616 37.6596 32.1741 37.4398 32.5719 37.4787L53.8785 38.6301C54.1925 38.6465 54.4751 38.82 54.6351 39.0936C54.7936 39.3673 54.8026 39.7007 54.659 39.9833L51.4352 46.3384C51.2737 46.6479 50.9522 46.8438 50.6038 46.8438ZM29.9207 44.4035L50.372 45.5085L53.2086 39.916L32.7573 38.811L29.9207 44.4035Z" fill="#E27B07"/>
<path d="M50.7473 46.0202L50.1597 45.9903L32.9083 45.0662L29.4437 44.8748C29.2538 44.8599 29.1282 44.6625 29.2164 44.486L32.4463 38.1295C32.4822 38.0338 32.5853 37.974 32.696 37.9829L39.6178 38.3568L45.4031 38.6663L53.9996 39.1283C54.0654 39.1358 54.1237 39.1642 54.1686 39.2091C54.1985 39.239 54.2209 39.2599 54.2284 39.2973C54.2643 39.3631 54.2643 39.4513 54.2284 39.5321L51.006 45.8826C50.9537 45.9753 50.858 46.0277 50.7473 46.0202Z" fill="#FF9F31"/>
<path d="M50.7652 46.6811C50.7473 46.6811 50.7293 46.6811 50.7114 46.6796L29.4092 45.5327C29.0818 45.5087 28.8021 45.3323 28.6481 45.0601C28.4941 44.791 28.4866 44.465 28.6242 44.1884L31.8585 37.8273C31.9662 37.5283 32.34 37.2965 32.7423 37.3204L54.0339 38.4658C54.2852 38.4942 54.4766 38.5855 54.6291 38.7335L54.816 38.9967C54.9401 39.2389 54.9461 39.5365 54.8294 39.7981L51.5921 46.1801C51.4187 46.5001 51.1091 46.6811 50.7652 46.6811ZM30.0791 44.2467L50.5349 45.3472L53.373 39.7533L32.9172 38.6542L30.0791 44.2467ZM32.6615 38.6408C32.6645 38.6408 32.6705 38.6423 32.6735 38.6423L32.6615 38.6408ZM33.0667 38.3627L33.0219 38.4524C33.0398 38.424 33.0533 38.3956 33.0667 38.3627Z" fill="#E27B07"/>
<path d="M55.6729 24.0538C56.2127 24.8837 56.7525 25.7121 57.2923 26.542C57.7454 27.2373 58.8684 26.5898 58.4108 25.8885C57.871 25.0586 57.3312 24.2302 56.7914 23.4003C56.3383 22.7035 55.2169 23.3525 55.6729 24.0538Z" fill="#E27B07"/>
<path d="M27.7794 59.9447C27.2396 59.1148 26.6997 58.2864 26.1599 57.4565C25.7069 56.7612 24.5854 57.4101 25.0415 58.1114C25.5813 58.9413 26.1211 59.7697 26.6609 60.5996C27.1139 61.2934 28.2354 60.646 27.7794 59.9447Z" fill="#E27B07"/>
</svg>
