<svg width="84" height="85" viewBox="0 0 84 85" fill="none" xmlns="http://www.w3.org/2000/svg">
<path d="M41.9991 84.0018C18.8417 84.0018 0 65.16 0 42.0009C0 18.8418 18.8417 0 41.9991 0C65.1583 0 84 18.8418 84 42.0009C84 65.16 65.1583 84.0018 41.9991 84.0018ZM41.9991 1.55462C19.6964 1.55462 1.55285 19.6982 1.55285 42.0009C1.55285 64.3036 19.6964 82.4454 41.9991 82.4454C64.3018 82.4454 82.4454 64.3036 82.4454 42.0009C82.4454 19.6982 64.3001 1.55462 41.9991 1.55462Z" fill="#E1BB26"/>
<path d="M36.2269 38.8858C39.4525 41.8922 42.6796 44.9001 45.9052 47.9065C46.5022 48.4628 47.4016 47.568 46.803 47.0087C43.5775 44.0023 40.3504 40.9944 37.1248 37.988C36.5262 37.4317 35.6269 38.3281 36.2269 38.8858Z" fill="#E1BB26"/>
<path d="M36.6745 44.8306C40.2056 44.8306 43.0682 41.9681 43.0682 38.4369C43.0682 34.9058 40.2056 32.0432 36.6745 32.0432C33.1433 32.0432 30.2808 34.9058 30.2808 38.4369C30.2808 41.9681 33.1433 44.8306 36.6745 44.8306Z" fill="#FFDD00"/>
<path d="M36.6714 45.4987C32.8911 45.4987 29.7516 42.4923 29.6171 38.6863C29.5521 36.8 30.2217 35.0028 31.508 33.6227C32.7943 32.2427 34.5401 31.4462 36.425 31.3797C38.2963 31.3207 40.107 31.9843 41.4871 33.2706C42.8671 34.5569 43.6636 36.3042 43.7302 38.1875C43.8662 42.0797 40.8114 45.3567 36.9208 45.4942C36.8391 45.4972 36.7545 45.4987 36.6714 45.4987ZM36.6774 32.7113C36.6109 32.7113 36.5429 32.7128 36.4749 32.7143C34.9452 32.7687 33.5304 33.4142 32.4875 34.5327C31.4461 35.6512 30.9019 37.1098 30.9548 38.638C31.0652 41.7925 33.7405 44.3167 36.8769 44.158C38.4066 44.1036 39.8214 43.4582 40.8643 42.3397C41.9073 41.2196 42.4514 39.7625 42.3985 38.2344C42.2882 35.1479 39.7428 32.7113 36.6774 32.7113Z" fill="#E1BB26"/>
<path d="M35.4168 39.3077C36.492 39.3077 37.3636 38.436 37.3636 37.3608C37.3636 36.2856 36.492 35.414 35.4168 35.414C34.3416 35.414 33.47 36.2856 33.47 37.3608C33.47 38.436 34.3416 39.3077 35.4168 39.3077Z" fill="#FFDD00"/>
<path d="M35.4167 39.9759C34.0171 39.9759 32.8532 38.8634 32.8033 37.4532C32.7776 36.7548 33.027 36.0898 33.5032 35.5804C33.9793 35.068 34.6262 34.7732 35.3245 34.749C36.0198 34.7234 36.6879 34.9743 37.1988 35.4504C37.7097 35.9265 38.0045 36.5719 38.0301 37.2703C38.0815 38.7123 36.9494 39.9245 35.5089 39.9759C35.4787 39.9759 35.447 39.9759 35.4167 39.9759ZM35.4182 36.0822C35.4031 36.0822 35.388 36.0822 35.3729 36.0837C35.0298 36.0958 34.7154 36.2394 34.4811 36.4903C34.2498 36.7397 34.1259 37.0647 34.1395 37.4048C34.1516 37.7479 34.2952 38.0638 34.5461 38.2966C34.7955 38.5278 35.0857 38.6654 35.4636 38.6382C36.168 38.6125 36.7197 38.02 36.6955 37.3156C36.6834 36.9755 36.5398 36.6581 36.2889 36.4268C36.0501 36.2046 35.7432 36.0822 35.4182 36.0822Z" fill="#E1BB26"/>
<path d="M46.0292 24.2922C44.4451 26.4083 42.861 28.526 41.2785 30.6421C40.7887 31.2966 41.8891 31.9299 42.3743 31.283C43.9584 29.1669 45.5425 27.0492 47.1265 24.9331C47.6148 24.2786 46.5129 23.6453 46.0292 24.2922Z" fill="#E1BB26"/>
<path d="M47.5119 25.193C48.5871 25.193 49.4587 24.3214 49.4587 23.2462C49.4587 22.1709 48.5871 21.2993 47.5119 21.2993C46.4367 21.2993 45.5651 22.1709 45.5651 23.2462C45.5651 24.3214 46.4367 25.193 47.5119 25.193Z" fill="#FFDD00"/>
<path d="M47.5059 25.8625C46.9451 25.8625 46.401 25.6827 45.9445 25.3411C45.3852 24.9224 45.0225 24.3117 44.9227 23.6195C44.8229 22.9272 44.9983 22.2394 45.417 21.6802C45.8342 21.1194 46.4463 20.7582 47.1386 20.6569C48.5579 20.4513 49.8941 21.4474 50.0982 22.8728C50.1964 23.5635 50.0226 24.2528 49.6039 24.812C49.1852 25.3728 48.5745 25.7341 47.8823 25.8338C47.7568 25.8535 47.6313 25.8625 47.5059 25.8625ZM47.5119 21.9689C47.45 21.9689 47.391 21.9719 47.329 21.9825C46.9905 22.0309 46.6927 22.2077 46.4871 22.4828C46.2831 22.7549 46.1969 23.0934 46.2453 23.4305C46.2937 23.7691 46.4705 24.0669 46.7441 24.2724C47.0177 24.478 47.3578 24.5642 47.6918 24.5143C48.0304 24.4659 48.3282 24.2891 48.5337 24.0155C48.7393 23.7419 48.8239 23.4048 48.7756 23.0678C48.6849 22.4284 48.1362 21.9689 47.5119 21.9689Z" fill="#E1BB26"/>
<path d="M36.9554 17.0973C39.0716 18.6814 41.1892 20.2654 43.3053 21.848C43.9598 22.3377 44.5931 21.2358 43.9462 20.7521C41.8301 19.1681 39.7139 17.5855 37.5963 16.0014C36.9418 15.5117 36.3085 16.6136 36.9554 17.0973Z" fill="#E1BB26"/>
<path d="M35.9109 17.5611C36.9862 17.5611 37.8578 16.6895 37.8578 15.6143C37.8578 14.539 36.9862 13.6674 35.9109 13.6674C34.8357 13.6674 33.9641 14.539 33.9641 15.6143C33.9641 16.6895 34.8357 17.5611 35.9109 17.5611Z" fill="#FFDD00"/>
<path d="M35.9034 18.2294C35.3441 18.2294 34.8015 18.0495 34.345 17.7079C33.7842 17.2908 33.423 16.6786 33.3217 15.9863C33.1161 14.5595 34.1107 13.2308 35.5361 13.0268C36.2223 12.9285 36.9161 13.1023 37.4754 13.521C38.0361 13.9382 38.3974 14.5504 38.4987 15.2427C38.7042 16.6695 37.7096 17.9982 36.2843 18.2022C36.1573 18.2219 36.0304 18.2294 35.9034 18.2294ZM35.914 14.3357C35.8505 14.3357 35.79 14.3403 35.7265 14.3509C35.0297 14.4506 34.543 15.0991 34.6443 15.7974C34.6927 16.136 34.8695 16.4337 35.1446 16.6393C35.4197 16.8449 35.7537 16.9265 36.0923 16.8811C36.7906 16.7814 37.2758 16.1329 37.1761 15.4346C37.1277 15.096 36.9509 14.7983 36.6758 14.5927C36.4521 14.4234 36.1875 14.3357 35.914 14.3357Z" fill="#E1BB26"/>
<path d="M57.8915 30.3472C55.7754 28.7631 53.6578 27.179 51.5416 25.595C50.8871 25.1052 50.2538 26.2071 50.9007 26.6908C53.0169 28.2749 55.133 29.8589 57.2506 31.443C57.9036 31.9312 58.5384 30.8308 57.8915 30.3472Z" fill="#E1BB26"/>
<path d="M58.936 33.7753C60.0112 33.7753 60.8828 32.9036 60.8828 31.8284C60.8828 30.7532 60.0112 29.8816 58.936 29.8816C57.8608 29.8816 56.9891 30.7532 56.9891 31.8284C56.9891 32.9036 57.8608 33.7753 58.936 33.7753Z" fill="#FFDD00"/>
<path d="M58.9299 34.4433C58.3706 34.4433 57.828 34.2635 57.3715 33.9203C56.8108 33.5032 56.4495 32.891 56.3498 32.2002C56.2515 31.508 56.4253 30.8202 56.8455 30.261C57.2642 29.7002 57.8749 29.3389 58.5656 29.2392C59.2504 29.1394 59.9456 29.3148 60.5049 29.7334C61.0642 30.1521 61.4269 30.7628 61.5267 31.4536C61.6265 32.1458 61.4511 32.8351 61.0324 33.3928C60.6153 33.9536 60.0031 34.3149 59.3123 34.4146C59.1823 34.4343 59.0554 34.4433 58.9299 34.4433ZM58.939 30.5497C58.877 30.5497 58.8166 30.5542 58.7531 30.5633C58.416 30.6116 58.1167 30.7885 57.9112 31.0621C57.7071 31.3372 57.6209 31.6727 57.6693 32.0113C57.7177 32.3499 57.8945 32.6492 58.1681 32.8532C58.4432 33.0573 58.7803 33.1434 59.1173 33.0951C59.4559 33.0467 59.7552 32.8698 59.9593 32.5963C60.1633 32.3212 60.2495 31.9856 60.2011 31.647C60.1527 31.31 59.9759 31.0107 59.7023 30.8051C59.4786 30.6373 59.2141 30.5497 58.939 30.5497Z" fill="#E1BB26"/>
<path d="M29.6775 60.1044C30.7053 55.8162 31.7332 51.5265 32.761 47.2368C32.9499 46.4433 31.7271 46.1032 31.5367 46.8998C30.5088 51.1879 29.4825 55.4776 28.4547 59.7673C28.2627 60.5609 29.487 60.8994 29.6775 60.1044Z" fill="#E1BB26"/>
<path d="M29.0653 66.3289C32.5965 66.3289 35.4591 63.4664 35.4591 59.9352C35.4591 56.4041 32.5965 53.5415 29.0653 53.5415C25.5342 53.5415 22.6716 56.4041 22.6716 59.9352C22.6716 63.4664 25.5342 66.3289 29.0653 66.3289Z" fill="#FFDD00"/>
<path d="M29.0775 67C28.5258 67 27.9695 66.935 27.4208 66.8035C25.5859 66.3636 24.032 65.236 23.0465 63.6293C22.0595 62.0226 21.7572 60.1271 22.197 58.2921C22.6369 56.4587 23.7645 54.9048 25.3712 53.9193C26.9795 52.9323 28.8779 52.6315 30.7084 53.0698C32.5434 53.5097 34.0972 54.6373 35.0827 56.244C36.0697 57.8508 36.372 59.7462 35.9322 61.5812C35.4923 63.4162 34.3648 64.97 32.758 65.9555C31.6319 66.6448 30.3653 67 29.0775 67ZM29.0548 54.208C28.0103 54.208 26.9825 54.4967 26.0711 55.056C24.7666 55.8556 23.8537 57.1162 23.4969 58.602C23.1417 60.0893 23.3851 61.6265 24.1847 62.9295C24.9843 64.2339 26.2449 65.1469 27.7307 65.5036C29.218 65.8603 30.7537 65.6154 32.0582 64.8158C33.3626 64.0162 34.2771 62.7556 34.6323 61.2698C34.989 59.7825 34.7441 58.2453 33.9446 56.9423C33.145 55.6379 31.8844 54.725 30.3985 54.3682C29.9526 54.2609 29.5022 54.208 29.0548 54.208Z" fill="#E1BB26"/>
<path d="M28.7479 63.507C29.8231 63.507 30.6947 62.6354 30.6947 61.5602C30.6947 60.485 29.8231 59.6133 28.7479 59.6133C27.6726 59.6133 26.801 60.485 26.801 61.5602C26.801 62.6354 27.6726 63.507 28.7479 63.507Z" fill="#FFDD00"/>
<path d="M28.7524 64.1735C27.8712 64.1735 27.0127 63.7307 26.5199 62.9281C25.7657 61.6992 26.1526 60.0849 27.38 59.3322C28.6088 58.5794 30.2246 58.9633 30.9759 60.1922C31.7301 61.4211 31.3447 63.0354 30.1158 63.7881C29.6911 64.0496 29.218 64.1735 28.7524 64.1735ZM28.0798 60.4703C27.4797 60.8391 27.2908 61.6281 27.6581 62.2282C28.0284 62.8298 28.8174 63.0157 29.4175 62.6499C30.0176 62.2796 30.2065 61.4906 29.8392 60.8905C29.4704 60.2905 28.6799 60.106 28.0798 60.4703Z" fill="#E1BB26"/>
<path d="M52.1025 55.1331C47.9277 56.557 43.7544 57.9793 39.5796 59.4032C38.8102 59.6662 39.1397 60.892 39.9167 60.6275C44.0915 59.2036 48.2648 57.7798 52.4396 56.3559C53.2089 56.096 52.8794 54.8686 52.1025 55.1331Z" fill="#E1BB26"/>
<path d="M52.2718 62.139C55.8029 62.139 58.6655 59.2764 58.6655 55.7453C58.6655 52.2141 55.8029 49.3516 52.2718 49.3516C48.7406 49.3516 45.8781 52.2141 45.8781 55.7453C45.8781 59.2764 48.7406 62.139 52.2718 62.139Z" fill="#FFDD00"/>
<path d="M52.2612 62.8071C51.2167 62.8071 50.1572 62.5743 49.1565 62.083V62.0815C45.6619 60.3645 44.2169 56.1246 45.9325 52.6315C47.6511 49.1369 51.8863 47.6874 55.3855 49.409C57.0784 50.2403 58.3451 51.6808 58.9557 53.4674C59.5633 55.2525 59.4409 57.1676 58.6081 58.8605C57.3837 61.3545 54.8701 62.8071 52.2612 62.8071ZM49.746 60.8844C52.5771 62.278 56.0188 61.1051 57.4094 58.271C58.0851 56.8985 58.1848 55.3462 57.6921 53.8967C57.1978 52.4501 56.17 51.2818 54.796 50.6076C53.4251 49.9335 51.8697 49.8337 50.4232 50.325C48.9751 50.8192 47.8067 51.8471 47.1311 53.221C45.7405 56.0536 46.915 59.4923 49.746 60.8844Z" fill="#E1BB26"/>
<path d="M53.8135 57.0918C54.8887 57.0918 55.7604 56.2202 55.7604 55.145C55.7604 54.0698 54.8887 53.1982 53.8135 53.1982C52.7383 53.1982 51.8667 54.0698 51.8667 55.145C51.8667 56.2202 52.7383 57.0918 53.8135 57.0918Z" fill="#FFDD00"/>
<path d="M53.8091 57.7586C53.4236 57.7586 53.0306 57.674 52.6618 57.4926V57.4911C51.368 56.8562 50.8329 55.2843 51.4662 53.9919C52.1041 52.6996 53.6715 52.16 54.9684 52.7993C56.2608 53.4327 56.7958 55.0031 56.1625 56.297C55.7075 57.2235 54.7749 57.7586 53.8091 57.7586ZM53.2513 56.2924C53.8801 56.6023 54.6495 56.3408 54.9623 55.709C55.2722 55.0772 55.0107 54.3093 54.3774 53.998C54.0691 53.8453 53.7244 53.8226 53.401 53.9345C53.0775 54.0448 52.816 54.2746 52.6648 54.5814C52.3565 55.2132 52.618 55.9811 53.2513 56.2924Z" fill="#E1BB26"/>
</svg>
