<svg width="84" height="85" viewBox="0 0 84 85" fill="none" xmlns="http://www.w3.org/2000/svg">
<path d="M41.9991 84.0018C18.8417 84.0018 0 65.16 0 42.0009C0 18.8418 18.8417 0 41.9991 0C65.1583 0 84 18.8418 84 42.0009C84 65.16 65.1583 84.0018 41.9991 84.0018ZM41.9991 1.55462C19.6964 1.55462 1.55285 19.6982 1.55285 42.0009C1.55285 64.3036 19.6964 82.4454 41.9991 82.4454C64.3018 82.4454 82.4454 64.3036 82.4454 42.0009C82.4454 19.6982 64.3001 1.55462 41.9991 1.55462Z" fill="#1BBEDE"/>
<path d="M44.1241 47.1015C44.0472 43.7694 44.7643 40.4219 46.1983 37.4169L47.3123 37.9508C45.9621 40.7784 45.287 43.9344 45.3597 47.0722L44.1241 47.1015Z" fill="#1BBEDE"/>
<path d="M38.547 64.2779C40.8117 65.0436 43.7995 62.2576 45.2204 58.0551C46.6413 53.8526 45.9574 49.8251 43.6927 49.0594C41.428 48.2936 38.4403 51.0797 37.0193 55.2822C35.5984 59.4846 36.2824 63.5121 38.547 64.2779Z" fill="#50DAF5"/>
<path d="M39.3232 65.0285C38.985 65.0285 38.6551 64.9753 38.3379 64.8677C37.017 64.4219 36.1085 63.1094 35.7801 61.1764C35.4754 59.379 35.7032 57.2167 36.4216 55.0894C37.9759 50.4938 41.2451 47.5922 43.8783 48.4797C46.5046 49.3701 47.3474 53.6638 45.7946 58.258C45.0761 60.3853 43.944 62.2443 42.6106 63.4868C41.5218 64.5001 40.3855 65.0285 39.3232 65.0285ZM42.8874 49.5532C41.0508 49.5532 38.7502 52.0606 37.5915 55.485C36.936 57.4236 36.7249 59.3692 36.9975 60.9695C37.2476 62.4343 37.8626 63.4029 38.7334 63.6979C39.6056 63.9928 40.6818 63.5972 41.7678 62.5825C42.9544 61.4755 43.9692 59.7997 44.6247 57.8611C45.9106 54.0537 45.3878 50.2939 43.4828 49.6496C43.2913 49.5839 43.0928 49.5532 42.8874 49.5532Z" fill="#1BBEDE"/>
<path d="M45.9554 52.3583C45.9428 52.3541 45.9428 52.3122 45.9344 52.294C45.926 52.2773 45.926 52.2773 45.9134 52.2717C45.6465 51.8831 44.2781 51.25 43.0803 50.8293C41.8867 50.4407 40.4009 50.1094 39.9648 50.2618C39.9522 50.2576 39.9522 50.2576 39.9355 50.266C39.9061 50.2702 39.888 50.3205 39.867 50.2995C39.846 50.2772 39.8963 50.252 39.9355 50.1807C40.1885 49.767 40.9977 48.3875 41.3709 47.8284C42.2305 46.5509 43.3696 45.88 44.6317 46.2364C45.8645 46.7242 46.3621 47.9486 46.2712 49.4847C46.2293 50.1542 46.035 51.742 45.9735 52.22C45.9735 52.308 45.9987 52.3583 45.9554 52.3583Z" fill="#50DAF5"/>
<path d="M45.9566 52.9775L45.7931 52.9551L45.4199 52.8531L45.364 52.5833C45.1222 52.3723 44.1704 51.8663 42.8747 51.4134C41.6112 51.0025 40.5993 50.8264 40.2247 50.8418L40.159 50.9089L39.8711 50.9242L39.6083 50.9228L39.0394 50.3246L39.4154 49.8522L39.7285 49.3295C40.0835 48.734 40.5853 47.8954 40.8606 47.4873C41.9215 45.9093 43.3625 45.244 44.8021 45.6452C46.2865 46.2294 47.0063 47.5991 46.8889 49.5251C46.847 50.2072 46.6527 51.802 46.587 52.3038C46.6163 52.4421 46.5632 52.6238 46.436 52.7664L46.2529 52.9705L45.9566 52.9775ZM40.9627 49.6677C41.8474 49.7977 42.8663 50.1108 43.2689 50.2436C43.568 50.3484 44.6428 50.737 45.4758 51.1982C45.5499 50.5608 45.6282 49.8354 45.6533 49.4497C45.7106 48.4951 45.5401 47.2637 44.4038 46.8136C43.2926 46.5005 42.4163 47.3811 41.8823 48.1764C41.6615 48.5062 41.2827 49.1324 40.9627 49.6677ZM40.3812 50.6167L40.3575 50.6475C40.3672 50.6391 40.3742 50.6279 40.3812 50.6167Z" fill="#1BBEDE"/>
<path d="M55.0833 61.5394C57.3936 60.925 58.3423 56.9515 57.2022 52.6643C56.062 48.3771 53.2649 45.3997 50.9546 46.0141C48.6442 46.6285 47.6956 50.602 48.8357 54.8892C49.9758 59.1764 52.773 62.1538 55.0833 61.5394Z" fill="#50DAF5"/>
<path d="M54.4516 62.2497C51.9777 62.2497 49.3542 59.2978 48.2263 55.0586C47.649 52.8879 47.5652 50.7159 47.9887 48.9422C48.4443 47.033 49.4381 45.7862 50.7869 45.427C53.4551 44.7156 56.5412 47.8283 57.7893 52.5148C59.0361 57.2026 57.9123 61.4335 55.2315 62.1477C54.9744 62.2148 54.713 62.2497 54.4516 62.2497ZM51.5738 46.562C51.4144 46.562 51.2565 46.5815 51.1041 46.6221C50.2152 46.8569 49.5359 47.7836 49.1907 49.2288C48.8133 50.8068 48.8958 52.7635 49.4213 54.7399C50.4528 58.6227 52.9561 61.474 54.9143 60.9527C56.8571 60.4355 57.6272 56.7162 56.5943 52.832C55.6439 49.2567 53.4341 46.562 51.5738 46.562Z" fill="#1BBEDE"/>
<path d="M54.6612 47.5138C54.6486 47.5166 54.6248 47.4817 54.6081 47.4719C54.5913 47.4621 54.5913 47.4621 54.5787 47.4663C54.1412 47.2888 52.6499 47.5166 51.4199 47.8311C50.2095 48.1666 48.7895 48.7117 48.5099 49.0793C48.4973 49.0835 48.4973 49.0835 48.4876 49.1002C48.4652 49.1212 48.4792 49.1729 48.4484 49.1659C48.4191 49.1603 48.4484 49.1114 48.44 49.0289C48.4233 48.5439 48.3338 46.9478 48.3366 46.2755C48.3464 44.7352 48.925 43.5472 50.1732 43.146C51.4702 42.8721 52.5618 43.6157 53.3348 44.9463C53.6702 45.5277 54.3858 46.9576 54.5997 47.3908C54.6472 47.4593 54.6961 47.4887 54.6612 47.5138Z" fill="#50DAF5"/>
<path d="M48.5912 49.8186L47.7679 49.6579L47.8238 49.0429L47.7945 48.407C47.7623 47.7165 47.7162 46.7549 47.719 46.2713C47.7316 44.3704 48.5562 43.016 49.9833 42.5576C51.5445 42.2249 52.9003 42.9699 53.8689 44.636C54.2141 45.2342 54.9311 46.6654 55.1533 47.1183C55.2554 47.2203 55.3113 47.4034 55.2805 47.5949L55.2372 47.8702L54.8347 48.1036L54.4796 48.2113L54.2924 48.0282C53.9849 47.9792 52.9058 48.0883 51.571 48.4279C50.2251 48.8011 49.2243 49.2567 49.0091 49.4454C48.9685 49.5251 48.9168 49.5838 48.8651 49.6271L48.8623 49.6313C48.8413 49.6481 48.8218 49.6621 48.8036 49.6747L48.5912 49.8186ZM49.0538 49.1407L49.051 49.1869C49.0524 49.1715 49.0538 49.1547 49.0538 49.1407ZM50.6947 43.7065C50.5675 43.7065 50.4375 43.7191 50.3005 43.747C49.2089 44.102 48.9602 45.3194 48.9546 46.2769C48.9532 46.678 48.9839 47.4118 49.0133 48.0338C49.8701 47.6312 50.9602 47.3168 51.2552 47.2357C51.5613 47.1574 52.671 46.8863 53.6201 46.8094C53.3293 46.2391 52.9953 45.592 52.7996 45.2551C52.3747 44.5213 51.6801 43.7065 50.6947 43.7065Z" fill="#1BBEDE"/>
<path d="M49.8252 36.2987C49.0355 36.8648 48.8524 37.9536 48.8342 38.925C48.8034 40.5254 49.0774 42.2208 50.1103 43.4437" fill="#50DAF5"/>
<path d="M49.6379 43.8435C48.6526 42.6792 48.176 41.0188 48.2165 38.9138C48.2444 37.4001 48.654 36.3798 49.466 35.7984L50.1858 36.8019C49.7134 37.1401 49.4744 37.839 49.4534 38.9376C49.4185 40.735 49.7987 42.1174 50.5828 43.0454L49.6379 43.8435Z" fill="#1BBEDE"/>
<path d="M36.9484 47.9653L35.9155 47.2874C39.0575 42.4919 43.9691 38.4009 50.1203 35.4545C56.1304 32.5767 62.7261 31.0546 67.7998 30.0496L68.0416 31.26C63.0364 32.2524 56.5399 33.7507 50.6542 36.5685C44.7056 39.417 39.966 43.3571 36.9484 47.9653Z" fill="#1BBEDE"/>
<path d="M36.4314 65.7818C38.8221 65.7818 40.7601 62.1861 40.7601 57.7506C40.7601 53.3151 38.8221 49.7194 36.4314 49.7194C34.0408 49.7194 32.1028 53.3151 32.1028 57.7506C32.1028 62.1861 34.0408 65.7818 36.4314 65.7818Z" fill="#50DAF5"/>
<path d="M36.4328 66.3996C33.6583 66.3996 31.4863 62.5992 31.4863 57.7506C31.4863 52.8992 33.6583 49.1017 36.4328 49.1017C39.2072 49.1017 41.3806 52.9006 41.3806 57.7506C41.3792 62.6006 39.2058 66.3996 36.4328 66.3996ZM36.4328 50.3358C34.4215 50.3358 32.7219 53.7322 32.7219 57.7506C32.7219 61.769 34.4215 65.1654 36.4328 65.1654C38.4441 65.1654 40.1451 61.769 40.1451 57.7506C40.1451 53.7322 38.4441 50.3358 36.4328 50.3358Z" fill="#1BBEDE"/>
<path d="M39.6421 52.1109C39.6281 52.1109 39.6141 52.0704 39.6015 52.0564C39.5876 52.0439 39.5876 52.0438 39.5736 52.0438C39.1948 51.7601 37.6965 51.598 36.4274 51.584C35.1723 51.598 33.6599 51.7601 33.2937 52.0438C33.2812 52.0438 33.2812 52.0439 33.2672 52.0564C33.2392 52.0704 33.2392 52.1249 33.2127 52.1109C33.1861 52.097 33.2267 52.0564 33.2406 51.9754C33.3497 51.5029 33.6725 49.9361 33.8486 49.2876C34.254 47.8018 35.1177 46.8039 36.4288 46.7354C37.7524 46.8039 38.6162 47.8032 39.0215 49.2876C39.1962 49.9361 39.5205 51.5029 39.6155 51.9754C39.6421 52.0564 39.6826 52.097 39.6421 52.1109Z" fill="#50DAF5"/>
<path d="M33.179 52.779L32.4313 52.4086L32.6409 51.8313L32.7821 51.1786C32.9275 50.5049 33.1273 49.5866 33.2517 49.1254C33.7605 47.2637 34.8758 46.1958 36.3965 46.1176C37.9885 46.1958 39.1081 47.2637 39.6168 49.124C39.8041 49.8201 40.141 51.4539 40.2206 51.8537C40.236 51.8537 40.3394 52.0773 40.2248 52.3429L40.1144 52.5973L39.642 52.7272H39.2772L39.1514 52.512C38.8523 52.3876 37.79 52.2171 36.4203 52.2017C35.0254 52.2171 33.9436 52.3988 33.6836 52.5246C33.6235 52.5917 33.5578 52.635 33.4963 52.6658L33.4949 52.6686L33.4921 52.6671C33.467 52.6797 33.4432 52.6895 33.4208 52.6965L33.179 52.779ZM33.8052 52.2409L33.7912 52.2842C33.7954 52.2702 33.801 52.2562 33.8052 52.2409ZM36.4217 50.9662C36.739 50.9703 37.8809 50.9927 38.8173 51.1632C38.6804 50.5245 38.5238 49.8186 38.4246 49.4483C38.173 48.5286 37.6167 47.4146 36.3965 47.3517C35.2504 47.4146 34.6969 48.5286 34.4454 49.4511C34.3405 49.8354 34.1826 50.5538 34.0512 51.1618C34.9821 50.9927 36.1156 50.9703 36.4217 50.9662Z" fill="#1BBEDE"/>
<path d="M50.6836 36.5182C56.2395 33.945 62.0958 32.4271 68.0766 31.2195C68.816 31.0713 68.5029 29.9392 67.7649 30.0874C61.6821 31.3159 55.7363 32.8911 50.091 35.5034C49.4061 35.8207 50.0016 36.834 50.6836 36.5182Z" fill="#1BBEDE"/>
<path d="M41.0856 28.7833C46.8161 31.1636 53.1882 32.2594 58.6994 32.1867C59.0292 32.1825 59.4108 32.1406 59.4387 31.9086C59.4569 31.7576 59.3116 31.5829 59.1704 31.4236C55.4595 27.2808 50.1217 23.5839 44.2584 21.1463C44.2066 21.1254 44.1577 21.11 44.1074 21.089C44.0571 21.0667 44.011 21.0443 43.9593 21.0233C38.2287 18.643 31.8566 17.5473 26.3455 17.6199C26.0156 17.6241 25.6355 17.6661 25.6075 17.8981C25.5893 18.049 25.7347 18.2237 25.8759 18.3831C29.5867 22.5259 34.9231 26.2228 40.7879 28.659C40.8382 28.6813 40.8885 28.6967 40.9388 28.7176C40.9878 28.74 41.0353 28.7638 41.0856 28.7833Z" fill="#50DAF5"/>
<path d="M58.1585 32.8073C52.3524 32.8073 46.2291 31.5885 40.8508 29.355L40.7571 29.313L40.8648 28.6897L40.5573 29.2334C34.6073 26.7609 29.2303 23.0556 25.416 18.7968C25.2511 18.6123 24.9422 18.2699 24.9953 17.8268C25.0596 17.2901 25.5125 17.0133 26.3399 17.0035C32.3346 16.9253 38.6508 18.1483 44.1969 20.4531L44.352 20.5215L44.2598 21.1491L44.496 20.5774C50.4432 23.05 55.8187 26.7539 59.6316 31.0141C59.798 31.1971 60.1068 31.541 60.0537 31.9826C59.9894 32.5194 59.5366 32.7961 58.7092 32.8059C58.5233 32.8059 58.3402 32.8073 58.1585 32.8073ZM41.3232 28.2131C46.5744 30.3963 52.7885 31.6668 58.4715 31.5703C54.7942 27.5575 49.6772 24.0675 44.0236 21.7166L43.8642 21.6551L43.9607 21.0219L43.7245 21.5936C38.4761 19.4104 32.2675 18.193 26.5761 18.2363C30.2562 22.2505 35.3718 25.7405 41.0255 28.0887L41.1834 28.1502L41.0884 28.7847L41.3232 28.2131Z" fill="#1BBEDE"/>
<path d="M38.3001 37.709C45.5569 37.6098 52.9074 35.8333 58.7917 33.2C59.1439 33.0421 59.5339 32.8199 59.4556 32.5571C59.4053 32.3866 59.1663 32.265 58.9427 32.1616C53.0374 29.4333 45.5933 27.9363 38.1659 28.0384C38.1016 28.0398 38.0401 28.0453 37.9772 28.0453C37.9129 28.0467 37.8514 28.0439 37.7871 28.0439C30.5303 28.1446 23.1798 29.921 17.2955 32.5543C16.9433 32.7122 16.5533 32.9331 16.6316 33.1972C16.6819 33.3678 16.9195 33.488 17.1445 33.5914C23.0498 36.3211 30.4939 37.818 37.9213 37.7146C37.9856 37.7146 38.0457 37.709 38.11 37.7076C38.1743 37.7076 38.2344 37.7104 38.3001 37.709Z" fill="#50DAF5"/>
<path d="M37.2671 38.3338C29.9068 38.3338 22.7338 36.855 16.8845 34.1519C16.6175 34.0275 16.1717 33.8206 16.0389 33.3692C15.8781 32.8241 16.2164 32.36 17.0424 31.9896C23.4019 29.1439 30.765 27.5226 37.7787 27.4247L37.9771 28.0453L37.9659 27.4275L38.1588 27.4206C45.67 27.3297 53.1449 28.8015 59.2025 31.5997C59.4695 31.7241 59.914 31.9295 60.0481 32.3824C60.2117 32.9261 59.8734 33.3915 59.046 33.7619C52.6865 36.609 45.3248 38.2289 38.3112 38.3268L38.177 38.3254L38.1127 37.7076L38.047 38.3268C37.7856 38.331 37.5257 38.3338 37.2671 38.3338ZM38.1099 37.0898L38.2986 37.7104L38.2902 37.0926C45.0313 37.0004 52.4013 35.379 58.5149 32.6465C52.6515 29.9714 45.431 28.5597 38.1728 28.6575L37.9743 28.6645L37.7856 28.0453L37.794 28.6617C31.0529 28.754 23.6815 30.3767 17.5694 33.1092C23.4285 35.783 30.649 37.196 37.9114 37.0982L38.1099 37.0898Z" fill="#1BBEDE"/>
<path d="M17.1431 33.5914C17.1431 33.5914 39.878 29.8637 58.0564 32.9778L17.1431 33.5914Z" fill="#50DAF5"/>
<path d="M17.2439 34.1994L17.0426 32.982C17.2718 32.9442 40.0878 29.2753 58.16 32.3684L57.9532 33.5872C40.0864 30.5248 17.4703 34.1644 17.2439 34.1994Z" fill="#1BBEDE"/>
</svg>
