<svg width="520" height="311" viewBox="0 0 520 311" fill="none" xmlns="http://www.w3.org/2000/svg">
<path d="M99.3506 441.33L10.0007 386.745V51.8812L99.3506 78.0708V441.33Z" fill="#808080"/>
<path d="M97.6812 439.659H96.0117L11.6695 386.745L10 51.8821C10 51.8821 42.4857 66.1044 97.6812 79.7412V439.659Z" fill="white"/>
<path d="M96.0117 439.659L10 386.745V52.7164C10 52.7164 37.1173 66.1971 96.0117 81.4107V439.659Z" fill="url(#paint0_linear_279_8700)"/>
<path d="M99.3506 441.33L510 371.712V39.3535L99.3506 80.5763V441.33Z" fill="url(#paint1_linear_279_8700)"/>
<path d="M414.806 14L10.001 51.8812L99.3509 78.0708L510 36.848L414.806 14Z" fill="url(#paint2_linear_279_8700)"/>
<path d="M510 39.3535L99.3506 81.4115V78.0708L510 36.848V39.3535Z" fill="url(#paint3_linear_279_8700)"/>
<path d="M97.6816 419.107H96.0119L93.5073 414.096V110.507L96.0119 105.496H97.6816V419.107Z" fill="url(#paint4_linear_279_8700)"/>
<path d="M97.6816 110.995L93.5073 110.507L96.0119 105.496H97.6816V110.995Z" fill="#808080"/>
<defs>
<linearGradient id="paint0_linear_279_8700" x1="5.15336" y1="247.861" x2="101.704" y2="244.491" gradientUnits="userSpaceOnUse">
<stop stop-color="#E6E6E6"/>
<stop offset="1" stop-color="#CFCFCF"/>
</linearGradient>
<linearGradient id="paint1_linear_279_8700" x1="454.142" y1="273.76" x2="366.516" y2="54.6818" gradientUnits="userSpaceOnUse">
<stop stop-color="#EAEAEB"/>
<stop offset="0.9947" stop-color="#FAFAFA"/>
<stop offset="1" stop-color="#FAFAFA"/>
</linearGradient>
<linearGradient id="paint2_linear_279_8700" x1="258.749" y1="30.0466" x2="261.5" y2="61.4801" gradientUnits="userSpaceOnUse">
<stop stop-color="#EDEDED"/>
<stop offset="1" stop-color="#E8E8E8"/>
</linearGradient>
<linearGradient id="paint3_linear_279_8700" x1="99.3508" y1="59.1298" x2="510" y2="59.1298" gradientUnits="userSpaceOnUse">
<stop stop-color="white"/>
<stop offset="0.9637" stop-color="white"/>
<stop offset="1" stop-color="#F2F2F2"/>
</linearGradient>
<linearGradient id="paint4_linear_279_8700" x1="93.5076" y1="262.302" x2="97.6818" y2="262.302" gradientUnits="userSpaceOnUse">
<stop stop-color="white"/>
<stop offset="0.601" stop-color="#CFCFCF"/>
<stop offset="1" stop-color="#808080"/>
</linearGradient>
</defs>
</svg>
