<svg width="196" height="56" viewBox="0 0 196 56" fill="none" xmlns="http://www.w3.org/2000/svg">
<path d="M85.5493 40.9807C84.9842 40.9807 84.586 40.8746 84.3549 40.6593C84.1269 40.4471 84.0145 40.0486 84.0145 39.4636V28.8345H73.1297V39.4636C73.1297 40.0486 73.0141 40.4471 72.7861 40.6593C72.555 40.8746 72.16 40.9807 71.5949 40.9807C71.033 40.9807 70.6285 40.8682 70.3876 40.64C70.1436 40.4118 70.0216 40.0229 70.0216 39.4636V16.8039C70.0216 16.2511 70.1436 15.8558 70.3876 15.6276C70.6285 15.3994 71.033 15.2869 71.5949 15.2869C72.16 15.2869 72.555 15.3962 72.7861 15.6083C73.0141 15.8236 73.1297 16.2254 73.1297 16.8039V25.916H84.0145V16.8039C84.0145 16.2254 84.1269 15.8236 84.3549 15.6083C84.586 15.3962 84.9842 15.2869 85.5493 15.2869C86.1112 15.2869 86.5126 15.4026 86.7566 15.6276C87.0006 15.8526 87.1226 16.2479 87.1226 16.8039V39.4636C87.1226 40.0229 87.0006 40.4118 86.7566 40.64C86.5126 40.8682 86.108 40.9807 85.5493 40.9807Z" fill="#55565A"/>
<path d="M93.1493 40.7911C92.0897 40.7911 91.5568 40.2736 91.5568 39.2354V16.9936C91.5568 15.9812 92.0897 15.4733 93.1493 15.4733H105.778C106.738 15.4733 107.219 15.9812 107.219 16.9936C107.219 18.0061 106.738 18.5107 105.778 18.5107H94.6681V25.8357H104.143C105.055 25.8357 105.511 26.35 105.511 27.3753C105.511 28.3749 105.055 28.8731 104.143 28.8731H94.6681V37.7537H105.778C106.738 37.7537 107.219 38.2487 107.219 39.2354C107.219 40.2736 106.738 40.7911 105.778 40.7911H93.1493Z" fill="#55565A"/>
<path d="M127.429 23.0265C127.429 24.9004 127.018 26.5139 126.199 27.8638C125.374 29.2169 124.08 30.1105 122.31 30.5412L126.671 38.5861C126.822 38.8658 126.896 39.1422 126.896 39.4218C126.896 39.8557 126.738 40.2222 126.424 40.5243C126.109 40.8296 125.724 40.9775 125.268 40.9775C124.683 40.9775 124.23 40.6914 123.903 40.1064L118.897 30.7694H113.355V39.4218C113.355 40.0036 113.24 40.4086 112.999 40.6368C112.761 40.865 112.36 40.9775 111.804 40.9775C111.275 40.9775 110.902 40.8586 110.684 40.6175C110.469 40.3796 110.363 39.9779 110.363 39.4218V16.9904C110.363 15.9779 110.877 15.4701 111.914 15.4701H119.915C122.265 15.4701 124.105 16.1386 125.435 17.4661C126.764 18.7967 127.429 20.6513 127.429 23.0265ZM113.359 18.5107V27.7352H120.525C121.209 27.7352 121.79 27.6002 122.272 27.3367C122.75 27.0699 123.142 26.7131 123.447 26.2728C123.749 25.8293 123.97 25.3246 124.109 24.7557C124.247 24.1836 124.314 23.6115 124.314 23.0265C124.314 22.2166 124.202 21.5287 123.977 20.9566C123.749 20.3877 123.457 19.9184 123.107 19.552C122.753 19.1856 122.342 18.9188 121.874 18.7549C121.405 18.591 120.93 18.5075 120.451 18.5075H113.359V18.5107Z" fill="#55565A"/>
<path d="M132.396 40.7911C131.358 40.7911 130.838 40.2575 130.838 39.1969V16.9936C130.838 15.9812 131.358 15.4733 132.389 15.4733H141.813C142.619 15.4733 143.38 15.6212 144.102 15.9104C144.822 16.2029 145.457 16.6272 146.013 17.1832C146.565 17.7361 147.005 18.4142 147.316 19.2114C147.634 20.0085 147.788 20.9084 147.788 21.9177C147.788 22.7791 147.593 23.6983 147.207 24.685C146.822 25.6718 146.164 26.4528 145.242 27.0346C146.263 27.6163 147.088 28.3845 147.718 29.3327C148.344 30.2808 148.659 31.5826 148.659 33.2282C148.659 34.4978 148.463 35.6003 148.068 36.5388C147.676 37.4773 147.159 38.2615 146.514 38.8915C145.868 39.5215 145.13 40.0004 144.308 40.3186C143.479 40.6336 142.641 40.7911 141.781 40.7911H132.396ZM133.95 18.5107V25.6075H141.685C142.494 25.6075 143.197 25.2829 143.788 24.6272C144.385 23.9715 144.677 23.0812 144.677 21.9434C144.677 20.8634 144.366 20.0181 143.749 19.4171C143.129 18.8128 142.314 18.5107 141.302 18.5107H133.95ZM133.95 28.6449V37.7505H141.797C142.275 37.7505 142.744 37.6669 143.2 37.4869C143.659 37.307 144.061 37.037 144.417 36.6706C144.77 36.3009 145.046 35.8349 145.252 35.2628C145.454 34.6939 145.557 34.006 145.557 33.1961C145.557 32.7172 145.473 32.2029 145.31 31.6565C145.143 31.1133 144.892 30.6183 144.552 30.1748C144.211 29.7344 143.788 29.3648 143.28 29.0723C142.773 28.7831 142.179 28.6384 141.498 28.6384H133.95V28.6449Z" fill="#55565A"/>
<path d="M153.896 40.7911C153.671 40.7911 153.418 40.6914 153.139 40.4889C152.859 40.2864 152.721 39.8943 152.721 39.3093C152.721 38.7308 152.872 38.3258 153.18 38.0976C153.482 37.8694 153.723 37.7537 153.899 37.7537H162.469C163.352 37.7537 164.113 37.4516 164.746 36.8441C165.375 36.2366 165.693 35.3656 165.693 34.2246C165.693 33.315 165.414 32.5596 164.858 31.965C164.303 31.3704 163.494 30.8562 162.431 30.4255L157.309 28.2623C156.574 27.9602 155.897 27.6452 155.261 27.3142C154.632 26.9863 154.082 26.5814 153.61 26.0992C153.142 25.6203 152.772 25.0418 152.49 24.3732C152.214 23.7015 152.076 22.8626 152.076 21.8469C152.076 20.963 152.217 20.1274 152.496 19.3431C152.779 18.5589 153.187 17.8807 153.726 17.3118C154.262 16.7429 154.924 16.2929 155.71 15.9651C156.494 15.6372 157.396 15.4701 158.407 15.4701H166.293C166.521 15.4701 166.781 15.5986 167.07 15.8526C167.363 16.1033 167.507 16.4986 167.507 17.029C167.507 17.6364 167.369 18.035 167.093 18.2246C166.81 18.4174 166.547 18.5107 166.293 18.5107H158.407C157.977 18.5107 157.573 18.5942 157.194 18.7581C156.815 18.9221 156.471 19.1503 156.17 19.4396C155.868 19.732 155.627 20.0824 155.45 20.4841C155.274 20.8891 155.184 21.3327 155.184 21.8148C155.184 22.7019 155.418 23.3897 155.881 23.8847C156.349 24.3797 157.02 24.8168 157.9 25.196L162.768 27.2467C163.497 27.5488 164.222 27.8863 164.954 28.2527C165.687 28.6223 166.332 29.0562 166.894 29.5641C167.459 30.0719 167.918 30.6858 168.271 31.4058C168.624 32.1257 168.798 33.0064 168.798 34.0446C168.798 34.9542 168.663 35.8124 168.387 36.6255C168.111 37.4355 167.713 38.1523 167.189 38.7694C166.666 39.3897 166.011 39.8847 165.234 40.2511C164.45 40.6175 163.558 40.8007 162.543 40.8007H153.896V40.7911Z" fill="#55565A"/>
<path d="M27.871 55.9C12.5035 55.9 0 43.3837 0 27.9994C0 12.6163 12.5035 0.0999756 27.871 0.0999756C43.2396 0.0999756 55.7431 12.6163 55.7431 27.9994C55.7431 43.3848 43.2396 55.9 27.871 55.9Z" fill="#55565A"/>
<path d="M27.8716 53.2C41.775 53.2 53.0459 41.9176 53.0459 28C53.0459 14.0824 41.775 2.79999 27.8716 2.79999C13.9682 2.79999 2.69727 14.0824 2.69727 28C2.69727 41.9176 13.9682 53.2 27.8716 53.2Z" fill="white"/>
<path d="M27.9283 32.3695L27.8026 32.1823C27.637 31.9357 26.2651 29.8566 24.9308 26.9051C23.5977 23.9561 22.296 20.1228 22.2828 16.3705C22.2828 16.37 22.2828 16.3696 22.2828 16.3691L27.9283 32.3695ZM27.9283 32.3695L28.0524 32.1812M27.9283 32.3695L28.0524 32.1812M28.0524 32.1812C28.2155 31.9337 29.5728 29.845 30.8864 26.884C32.199 23.9253 33.4742 20.0823 33.4606 16.3295V16.3295M28.0524 32.1812L33.4606 16.3295M33.4606 16.3295C33.4536 14.5026 33.2809 12.2604 32.3013 10.7373M33.4606 16.3295L32.3013 10.7373M32.3013 10.7373C31.3944 9.32481 30.0223 8.34477 28.5425 8.11987C26.854 7.86237 25.0837 8.57167 23.8896 10.0379C22.5729 11.6537 22.2899 14.0794 22.2828 16.209L32.3013 10.7373Z" fill="white" stroke="#EF4D9C" stroke-width="0.3"/>
<path d="M27.806 33.1154L27.9318 33.3036L28.0561 33.1144L28.4818 32.4665C28.4818 32.4664 28.4819 32.4663 28.482 32.4662C28.5988 32.2899 29.9768 30.1785 31.3232 27.1535C32.6693 24.1292 33.9901 20.1777 33.9766 16.3283C33.9707 14.649 33.8415 12.178 32.7367 10.4581L32.7367 10.458C31.7334 8.89852 30.2372 7.85633 28.6221 7.60936C26.7477 7.32255 24.7779 8.13262 23.4906 9.71192L23.4906 9.712C22.3338 11.133 21.7788 13.2688 21.7682 16.2115V16.212L21.7682 16.3709L21.7682 16.3714C21.7812 20.1485 23.0434 23.9618 24.3681 26.931C25.6937 29.9021 27.0873 32.04 27.3742 32.4694L27.4989 32.386L27.3742 32.4694L27.806 33.1154ZM32.6449 16.334L32.7949 16.3335L32.6449 16.334C32.6553 19.394 31.7628 22.5489 30.7049 25.206C29.7146 27.6931 28.5828 29.7355 27.9228 30.8428C27.2554 29.7386 26.1092 27.7016 25.1012 25.2205C24.0245 22.5702 23.1097 19.4229 23.0987 16.3695V16.2147C23.1092 13.5463 23.5844 11.707 24.5227 10.5544C25.3882 9.49179 26.6305 8.88543 27.8642 8.88543C28.0507 8.88543 28.2369 8.89893 28.4217 8.92696C29.6458 9.11441 30.8132 9.92862 31.616 11.1798L31.6161 11.1799C32.2924 12.2314 32.6368 13.9079 32.6449 16.334Z" fill="#EE4D9B" stroke="#EF4D9C" stroke-width="0.3"/>
<path d="M27.8719 22.2366V46.9678" stroke="#EF4D9C" stroke-width="0.3"/>
<path d="M27.2316 22.2366V22.2849V22.3332V22.3815V22.4298V22.4781V22.5264V22.5747V22.623V22.6713V22.7196V22.7679V22.8162V22.8645V22.9128V22.9611V23.0095V23.0578V23.1061V23.1544V23.2027V23.251V23.2993V23.3476V23.3959V23.4442V23.4925V23.5408V23.5891V23.6374V23.6857V23.734V23.7823V23.8306V23.879V23.9273V23.9756V24.0239V24.0722V24.1205V24.1688V24.2171V24.2654V24.3137V24.362V24.4103V24.4586V24.5069V24.5552V24.6035V24.6518V24.7001V24.7484V24.7968V24.8451V24.8934V24.9417V24.99V25.0383V25.0866V25.1349V25.1832V25.2315V25.2798V25.3281V25.3764V25.4247V25.473V25.5213V25.5696V25.6179V25.6663V25.7146V25.7629V25.8112V25.8595V25.9078V25.9561V26.0044V26.0527V26.101V26.1493V26.1976V26.2459V26.2942V26.3425V26.3908V26.4391V26.4874V26.5357V26.5841V26.6324V26.6807V26.729V26.7773V26.8256V26.8739V26.9222V26.9705V27.0188V27.0671V27.1154V27.1637V27.212V27.2603V27.3086V27.3569V27.4052V27.4536V27.5019V27.5502V27.5985V27.6468V27.6951V27.7434V27.7917V27.84V27.8883V27.9366V27.9849V28.0332V28.0815V28.1298V28.1781V28.2264V28.2747V28.3231V28.3714V28.4197V28.468V28.5163V28.5646V28.6129V28.6612V28.7095V28.7578V28.8061V28.8544V28.9027V28.951V28.9993V29.0476V29.0959V29.1442V29.1925V29.2409V29.2892V29.3375V29.3858V29.4341V29.4824V29.5307V29.579V29.6273V29.6756V29.7239V29.7722V29.8205V29.8688V29.9171V29.9654V30.0137V30.062V30.1104V30.1587V30.207V30.2553V30.3036V30.3519V30.4002V30.4485V30.4968V30.5451V30.5934V30.6417V30.69V30.7383V30.7866V30.8349V30.8832V30.9315V30.9798V31.0282V31.0765V31.1248V31.1731V31.2214V31.2697V31.318V31.3663V31.4146V31.4629V31.5112V31.5595V31.6078V31.6561V31.7044V31.7527V31.801V31.8493V31.8977V31.946V31.9943V32.0426V32.0909V32.1392V32.1875V32.2358V32.2841V32.3324V32.3807V32.429V32.4773V32.5256V32.5739V32.6222V32.6705V32.7188V32.7671V32.8155V32.8638V32.9121V32.9604V33.0087V33.057V33.1053V33.1536V33.2019V33.2502V33.2985V33.3468V33.3951V33.4434V33.4917V33.54V33.5883V33.6366V33.685V33.7333V33.7816V33.8299V33.8782V33.9265V33.9748V34.0231V34.0714V34.1197V34.168V34.2163V34.2646V34.3129V34.3612V34.4095V34.4578V34.5061V34.5544V34.6028V34.6511V34.6994V34.7477V34.796V34.8443V34.8926V34.9409V34.9892V35.0375V35.0858V35.1341V35.1824V35.2307V35.279V35.3273V35.3756V35.4239V35.4723V35.5206V35.5689V35.6172V35.6655V35.7138V35.7621V35.8104V35.8587V35.907V35.9553V36.0036V36.0519V36.1002V36.1485V36.1968V36.2451V36.2934V36.3418V36.3901V36.4384V36.4867V36.535V36.5833V36.6316V36.6799V36.7282V36.7765V36.8248V36.8731V36.9214V36.9697V37.018V37.0663V37.1146V37.1629V37.2112V37.2596V37.3079V37.3562V37.4045V37.4528V37.5011V37.5494V37.5977V37.646V37.6943V37.7426V37.7909V37.8392V37.8875V37.9358V37.9841V38.0324V38.0807V38.1291V38.1774V38.2257V38.274V38.3223V38.3706V38.4189V38.4672V38.5155V38.5638V38.6121V38.6604V38.7087V38.757V38.8053V38.8536V38.9019V38.9502V38.9985V39.0469V39.0952V39.1435V39.1918V39.2401V39.2884V39.3367V39.385V39.4333V39.4816V39.5299V39.5782V39.6265V39.6748V39.7231V39.7714V39.8197V39.868V39.9164V39.9647V40.013V40.0613V40.1096V40.1579V40.2062V40.2545V40.3028V40.3511V40.3994V40.4477V40.496V40.5443V40.5926V40.6409V40.6892V40.7375V40.7858V40.8342V40.8825V40.9308V40.9791V41.0274V41.0757V41.124V41.1723V41.2206V41.2689V41.3172V41.3655V41.4138V41.4621V41.5104V41.5587V41.607V41.6553V41.7037V41.752V41.8003V41.8486V41.8969V41.9452V41.9935V42.0418V42.0901V42.1384V42.1867V42.235V42.2833V42.3316V42.3799V42.4282V42.4765V42.5248V42.5731V42.6215V42.6698V42.7181V42.7664V42.8147V42.863V42.9113V42.9596V43.0079V43.0562V43.1045V43.1528V43.2011V43.2494V43.2977V43.346V43.3943V43.4426V43.491V43.5393V43.5876V43.6359V43.6842V43.7325V43.7808V43.8291V43.8774V43.9257V43.974V44.0223V44.0706V44.1189V44.1672V44.2155V44.2638V44.3121V44.3605V44.4088V44.4571V44.5054V44.5537V44.602V44.6503V44.6986V44.7469V44.7952V44.8435V44.8918V44.9401V44.9884V45.0367V45.085V45.1333V45.1816V45.2299V45.2783V45.3266V45.3749V45.4232V45.4715V45.5198V45.5681V45.6164V45.6647V45.713V45.7613V45.8096V45.8579V45.9062V45.9545V46.0028V46.0511V46.0994V46.1478V46.1961V46.2444V46.2927V46.341V46.3893V46.4376V46.4859V46.5342V46.5825V46.6308V46.6791V46.7274V46.7757V46.824V46.8723V46.9206V46.9689C27.2316 47.1694 27.311 47.3299 27.4369 47.4383C27.5597 47.544 27.7185 47.5933 27.8717 47.5934C28.0249 47.5935 28.1837 47.5444 28.3066 47.4387C28.4326 47.3303 28.5119 47.1696 28.5119 46.9689V46.9206V46.8723V46.824V46.7757V46.7274V46.6791V46.6308V46.5825V46.5342V46.4859V46.4376V46.3893V46.341V46.2927V46.2444V46.1961V46.1478V46.0994V46.0511V46.0028V45.9545V45.9062V45.8579V45.8096V45.7613V45.713V45.6647V45.6164V45.5681V45.5198V45.4715V45.4232V45.3749V45.3266V45.2783V45.2299V45.1816V45.1333V45.085V45.0367V44.9884V44.9401V44.8918V44.8435V44.7952V44.7469V44.6986V44.6503V44.602V44.5537V44.5054V44.4571V44.4088V44.3605V44.3121V44.2638V44.2155V44.1672V44.1189V44.0706V44.0223V43.974V43.9257V43.8774V43.8291V43.7808V43.7325V43.6842V43.6359V43.5876V43.5393V43.491V43.4426V43.3943V43.346V43.2977V43.2494V43.2011V43.1528V43.1045V43.0562V43.0079V42.9596V42.9113V42.863V42.8147V42.7664V42.7181V42.6698V42.6215V42.5731V42.5248V42.4765V42.4282V42.3799V42.3316V42.2833V42.235V42.1867V42.1384V42.0901V42.0418V41.9935V41.9452V41.8969V41.8486V41.8003V41.752V41.7037V41.6553V41.607V41.5587V41.5104V41.4621V41.4138V41.3655V41.3172V41.2689V41.2206V41.1723V41.124V41.0757V41.0274V40.9791V40.9308V40.8825V40.8342V40.7858V40.7375V40.6892V40.6409V40.5926V40.5443V40.496V40.4477V40.3994V40.3511V40.3028V40.2545V40.2062V40.1579V40.1096V40.0613V40.013V39.9647V39.9164V39.868V39.8197V39.7714V39.7231V39.6748V39.6265V39.5782V39.5299V39.4816V39.4333V39.385V39.3367V39.2884V39.2401V39.1918V39.1435V39.0952V39.0469V38.9985V38.9502V38.9019V38.8536V38.8053V38.757V38.7087V38.6604V38.6121V38.5638V38.5155V38.4672V38.4189V38.3706V38.3223V38.274V38.2257V38.1774V38.1291V38.0807V38.0324V37.9841V37.9358V37.8875V37.8392V37.7909V37.7426V37.6943V37.646V37.5977V37.5494V37.5011V37.4528V37.4045V37.3562V37.3079V37.2596V37.2112V37.1629V37.1146V37.0663V37.018V36.9697V36.9214V36.8731V36.8248V36.7765V36.7282V36.6799V36.6316V36.5833V36.535V36.4867V36.4384V36.3901V36.3418V36.2934V36.2451V36.1968V36.1485V36.1002V36.0519V36.0036V35.9553V35.907V35.8587V35.8104V35.7621V35.7138V35.6655V35.6172V35.5689V35.5206V35.4723V35.4239V35.3756V35.3273V35.279V35.2307V35.1824V35.1341V35.0858V35.0375V34.9892V34.9409V34.8926V34.8443V34.796V34.7477V34.6994V34.6511V34.6028V34.5544V34.5061V34.4578V34.4095V34.3612V34.3129V34.2646V34.2163V34.168V34.1197V34.0714V34.0231V33.9748V33.9265V33.8782V33.8299V33.7816V33.7333V33.685V33.6366V33.5883V33.54V33.4917V33.4434V33.3951V33.3468V33.2985V33.2502V33.2019V33.1536V33.1053V33.057V33.0087V32.9604V32.9121V32.8638V32.8155V32.7671V32.7188V32.6705V32.6222V32.5739V32.5256V32.4773V32.429V32.3807V32.3324V32.2841V32.2358V32.1875V32.1392V32.0909V32.0426V31.9943V31.946V31.8977V31.8493V31.801V31.7527V31.7044V31.6561V31.6078V31.5595V31.5112V31.4629V31.4146V31.3663V31.318V31.2697V31.2214V31.1731V31.1248V31.0765V31.0282V30.9798V30.9315V30.8832V30.8349V30.7866V30.7383V30.69V30.6417V30.5934V30.5451V30.4968V30.4485V30.4002V30.3519V30.3036V30.2553V30.207V30.1587V30.1104V30.062V30.0137V29.9654V29.9171V29.8688V29.8205V29.7722V29.7239V29.6756V29.6273V29.579V29.5307V29.4824V29.4341V29.3858V29.3375V29.2892V29.2409V29.1925V29.1442V29.0959V29.0476V28.9993V28.951V28.9027V28.8544V28.8061V28.7578V28.7095V28.6612V28.6129V28.5646V28.5163V28.468V28.4197V28.3714V28.3231V28.2747V28.2264V28.1781V28.1298V28.0815V28.0332V27.9849V27.9366V27.8883V27.84V27.7917V27.7434V27.6951V27.6468V27.5985V27.5502V27.5019V27.4536V27.4052V27.3569V27.3086V27.2603V27.212V27.1637V27.1154V27.0671V27.0188V26.9705V26.9222V26.8739V26.8256V26.7773V26.729V26.6807V26.6324V26.5841V26.5357V26.4874V26.4391V26.3908V26.3425V26.2942V26.2459V26.1976V26.1493V26.101V26.0527V26.0044V25.9561V25.9078V25.8595V25.8112V25.7629V25.7146V25.6663V25.6179V25.5696V25.5213V25.473V25.4247V25.3764V25.3281V25.2798V25.2315V25.1832V25.1349V25.0866V25.0383V24.99V24.9417V24.8934V24.8451V24.7968V24.7484V24.7001V24.6518V24.6035V24.5552V24.5069V24.4586V24.4103V24.362V24.3137V24.2654V24.2171V24.1688V24.1205V24.0722V24.0239V23.9756V23.9273V23.879V23.8306V23.7823V23.734V23.6857V23.6374V23.5891V23.5408V23.4925V23.4442V23.3959V23.3476V23.2993V23.251V23.2027V23.1544V23.1061V23.0578V23.0095V22.9611V22.9128V22.8645V22.8162V22.7679V22.7196V22.6713V22.623V22.5747V22.5264V22.4781V22.4298V22.3815V22.3332V22.2849V22.2366C28.5119 22.0363 28.4324 21.876 28.3065 21.7678C28.1837 21.6623 28.025 21.6131 27.8718 21.613C27.7187 21.6129 27.5599 21.6619 27.4371 21.7674C27.311 21.8756 27.2316 22.0361 27.2316 22.2366Z" fill="#EE4D9B" stroke="#EF4D9C" stroke-width="0.3"/>
<path d="M24.256 36.8304L24.0349 36.7866C23.8353 36.7472 22.1697 36.4061 20.1014 35.6259C18.0354 34.8466 15.5536 33.6239 13.7328 31.8148L13.7324 31.8144L13.6565 31.7385L13.6561 31.7381C12.6343 30.7071 11.5908 29.3907 11.4451 27.9584L11.4451 27.9584C11.313 26.6591 11.8313 25.4466 12.7843 24.7443L24.256 36.8304ZM24.256 36.8304L24.211 36.6095M24.256 36.8304L24.211 36.6095M24.211 36.6095C24.1703 36.4102 23.8179 34.7456 23.0239 32.6809C22.2307 30.6185 20.9916 28.1431 19.1714 26.3334L19.1713 26.3333M24.211 36.6095L19.1713 26.3333M19.1713 26.3333C18.2876 25.4557 17.1164 24.4495 15.8964 24.1834L15.8962 24.1834M19.1713 26.3333L15.8962 24.1834M15.8962 24.1834C14.7676 23.9389 13.6188 24.1289 12.7844 24.7442L15.8962 24.1834Z" fill="white" stroke="#EF4D9C" stroke-width="0.3"/>
<path d="M24.6977 37.4432L24.9196 37.4871L24.8737 37.2656L24.7162 36.5052C24.644 36.1551 24.267 34.4357 23.4506 32.3485C22.6351 30.2634 21.3762 27.7986 19.5343 25.9678C18.7098 25.1471 17.4239 23.9871 16.0061 23.6799C14.7147 23.3964 13.4262 23.6285 12.4797 24.3284C11.3724 25.1431 10.7854 26.5555 10.9339 28.0099C11.0661 29.3083 11.8497 30.647 13.2929 32.1024C13.293 32.1025 13.2931 32.1026 13.2931 32.1026L13.3686 32.1793L13.3685 32.1793L13.3698 32.1805C15.2578 34.0569 17.8345 35.3207 19.964 36.1213C22.094 36.9221 23.7909 37.2647 23.9361 37.2926C23.9363 37.2926 23.9364 37.2926 23.9365 37.2927L24.6977 37.4432ZM13.2692 25.4005L13.2692 25.4005C13.717 25.0707 14.2995 24.8947 14.9355 24.8947C15.1906 24.8947 15.4554 24.9227 15.7218 24.9801C16.5091 25.1517 17.4474 25.7717 18.5945 26.9118C21.2401 29.5412 22.6304 33.7839 23.1593 35.743C21.2028 35.2335 16.9713 33.8833 14.3095 31.2364L14.2356 31.1625C14.2355 31.1624 14.2354 31.1623 14.2354 31.1622C12.985 29.9001 12.3543 28.8259 12.257 27.8743L12.2569 27.8742C12.1544 26.8764 12.5489 25.9309 13.2692 25.4005Z" fill="#EE4D9B" stroke="#EF4D9C" stroke-width="0.3"/>
<path d="M19.2864 31.9106L27.7905 40.4222" stroke="#EF4D9C" stroke-width="0.3"/>
<path d="M18.835 32.3634L18.8351 32.3636L18.8381 32.3666C21.6718 35.2032 24.5044 38.0386 27.3369 40.8752L27.3369 40.8752C27.4787 41.0172 27.6485 41.0745 27.8142 41.062C27.9759 41.0498 28.123 40.9723 28.2315 40.8639C28.3399 40.7555 28.4176 40.6084 28.4299 40.4468C28.4426 40.281 28.3853 40.1112 28.2435 39.9693C27.301 39.0257 26.3584 38.0823 25.4159 37.139C23.5238 35.2452 21.632 33.3517 19.7406 31.4576L19.7404 31.4575C19.5986 31.3159 19.4291 31.2587 19.2635 31.2713C19.1021 31.2836 18.9552 31.3611 18.8469 31.4695C18.7387 31.5778 18.6613 31.7248 18.6491 31.8863C18.6365 32.0518 18.6936 32.2215 18.835 32.3634Z" fill="#EE4D9B" stroke="#EF4D9C" stroke-width="0.3"/>
<path d="M31.531 36.6091L31.4852 36.8304L31.7069 36.7867C31.9071 36.7472 33.5727 36.4062 35.6411 35.626C37.7071 34.8466 40.1888 33.624 42.0102 31.8149L42.0103 31.815L42.0131 31.812C42.0362 31.7878 42.0606 31.7633 42.0854 31.7386L42.0857 31.7382C43.1088 30.7071 44.1511 29.3907 44.2968 27.9585L44.2968 27.9585C44.4289 26.6592 43.9106 25.4467 42.9587 24.7444L42.9586 24.7443C42.1231 24.129 40.9755 23.9389 39.8468 24.1834L39.8466 24.1835C38.6254 24.4496 37.4543 25.4558 36.5717 26.3335C34.7508 28.1432 33.5118 30.6186 32.7186 32.6809C31.9245 34.7457 31.5721 36.4103 31.531 36.6091Z" fill="white" stroke="#EF4D9C" stroke-width="0.3"/>
<path d="M30.8262 37.4874L30.8713 37.2661L31.0265 36.5056C31.0265 36.5056 31.0265 36.5056 31.0265 36.5056C31.0555 36.3635 31.4117 34.6648 32.2282 32.5359C33.0438 30.4094 34.324 27.8395 36.2073 25.9666L36.2074 25.9666C37.0331 25.1459 38.319 23.9871 39.7368 23.6788L30.8262 37.4874ZM30.8262 37.4874L31.0477 37.4432M30.8262 37.4874L31.0477 37.4432M31.0477 37.4432L31.8076 37.2915C31.8077 37.2915 31.8079 37.2915 31.808 37.2914C31.9529 37.2635 33.6493 36.9209 35.778 36.1209C37.9065 35.3211 40.4815 34.0587 42.366 32.1852L42.3664 32.1848L42.4504 32.1007L42.4509 32.1003M31.0477 37.4432L42.4509 32.1003M42.4509 32.1003C43.8917 30.6462 44.6778 29.3062 44.8089 28.0089C44.9586 26.553 44.3691 25.1406 43.2642 24.3272M42.4509 32.1003L43.2642 24.3272M43.2642 24.3272C42.3165 23.6286 41.0305 23.3965 39.7368 23.6788L43.2642 24.3272ZM43.4858 27.8757C43.3887 28.824 42.762 29.8941 41.5202 31.1505L41.5199 31.1504L41.4333 31.2364C38.7692 33.8845 34.5364 35.2348 32.5819 35.7443C33.1058 33.7895 34.4883 29.558 37.1483 26.913L37.1483 26.913C38.2953 25.7717 39.2338 25.1529 40.0211 24.9813C40.2879 24.9238 40.5515 24.8947 40.8073 24.8947C41.4443 24.8947 42.0257 25.0706 42.4747 25.4017C43.1926 25.932 43.5862 26.8776 43.4858 27.8757Z" fill="#EE4D9B" stroke="#EF4D9C" stroke-width="0.3"/>
<path d="M36.4557 31.9106L27.9528 40.4222" stroke="#EF4D9C" stroke-width="0.3"/>
<path d="M36.0033 31.4575L36.0031 31.4576L27.5001 39.9693L27.605 40.074L27.5001 39.9693C27.3584 40.1112 27.3011 40.2809 27.3136 40.4466C27.3258 40.6083 27.4032 40.7554 27.5115 40.8638C27.6198 40.9722 27.7669 41.0498 27.9285 41.062C28.0942 41.0745 28.2638 41.0171 28.4056 40.8752L36.9084 32.3637C37.0503 32.2221 37.1076 32.0525 37.0951 31.8868C37.0829 31.7253 37.0055 31.5783 36.8972 31.4699C36.7889 31.3615 36.642 31.2839 36.4805 31.2715C36.3148 31.2588 36.1451 31.3158 36.0033 31.4575Z" fill="#EE4D9B" stroke="#EF4D9C" stroke-width="0.3"/>
</svg>
