<svg width="84" height="85" viewBox="0 0 84 85" fill="none" xmlns="http://www.w3.org/2000/svg">
<path d="M41.9991 85.0001C18.8417 85.0001 0 66.1583 0 42.9992C0 19.8401 18.8417 0.998291 41.9991 0.998291C65.1583 0.998291 84 19.8401 84 42.9992C84 66.1583 65.1583 85.0001 41.9991 85.0001ZM41.9991 2.55291C19.6964 2.55291 1.55285 20.6965 1.55285 42.9992C1.55285 65.3019 19.6964 83.4437 41.9991 83.4437C64.3018 83.4437 82.4454 65.3019 82.4454 42.9992C82.4454 20.6965 64.3001 2.55291 41.9991 2.55291Z" fill="#4FAB1A"/>
<path d="M30.0201 41.2935C29.6965 40.7167 29.4186 40.1064 29.1918 39.4575C28.1049 36.3307 28.6097 33.3868 29.5066 30.3022C30.115 28.2059 29.8759 25.8477 28.5323 23.7461C26.8335 21.0889 23.6011 19.6538 20.4972 20.2007C15.2706 21.1223 12.4903 26.4755 14.3526 31.1182C15.8334 34.8077 19.8852 35.8788 22.4756 38.5835C25.3017 41.5344 25.7484 46.0365 25.0151 49.923C24.7284 51.4372 25.0133 53.0797 26.0386 54.5394C27.3294 56.3789 29.6402 57.3654 31.8596 57.0102C35.8833 56.3683 38.0376 52.276 36.6149 48.7307C36.1752 47.6333 35.4454 46.7435 34.552 46.1033C32.7108 44.7844 31.1087 43.2297 30.0201 41.2935Z" fill="#89CE60"/>
<path d="M54.1112 25.8738C53.5362 26.1974 52.9242 26.4753 52.277 26.7004C49.1484 27.7872 46.2063 27.2825 43.1199 26.3856C41.0237 25.7771 38.6654 26.0163 36.5656 27.3616C33.9083 29.0605 32.4733 32.2928 33.0202 35.3967C33.9417 40.6233 39.2967 43.4037 43.9377 41.5396C47.6273 40.0606 48.6983 36.007 51.4048 33.4165C54.3557 30.5922 58.856 30.1455 62.7443 30.8789C64.2567 31.1638 65.8992 30.8806 67.3606 29.8554C69.1984 28.5645 70.1849 26.2537 69.8315 24.0343C69.1878 20.0106 65.0955 17.8563 61.5519 19.2791C60.4528 19.7187 59.5647 20.4485 58.9228 21.3419C57.6038 23.1832 56.0475 24.7853 54.1112 25.8738Z" fill="#89CE60"/>
<path d="M40.5874 64.0588C41.0552 63.5911 41.5687 63.1585 42.1315 62.768C44.8503 60.8793 47.8206 60.5733 51.0335 60.605C53.216 60.6261 55.423 59.7608 57.0832 57.9002C59.1829 55.5472 59.6947 52.0493 58.3318 49.2074C56.035 44.4222 50.1314 43.1877 46.1622 46.2318C43.0108 48.6517 43.0688 52.8424 41.1625 56.0677C39.082 59.5832 34.8667 61.2275 30.9256 61.5669C29.3903 61.7006 27.885 62.4146 26.7559 63.7986C25.3332 65.5361 25.0044 68.028 25.9452 70.068C27.6493 73.7681 32.1707 74.7407 35.2008 72.4175C36.1399 71.6965 36.7994 70.7574 37.1757 69.7233C37.9495 67.5902 39.0152 65.6275 40.5874 64.0588Z" fill="#89CE60"/>
<path d="M15.267 48.4653C17.0192 48.4653 18.4395 47.0449 18.4395 45.2928C18.4395 43.5406 17.0192 42.1202 15.267 42.1202C13.5149 42.1202 12.0945 43.5406 12.0945 45.2928C12.0945 47.0449 13.5149 48.4653 15.267 48.4653Z" fill="#89CE60"/>
<path d="M48.2304 22.0121C49.9826 22.0121 51.403 20.5917 51.403 18.8395C51.403 17.0874 49.9826 15.667 48.2304 15.667C46.4783 15.667 45.0579 17.0874 45.0579 18.8395C45.0579 20.5917 46.4783 22.0121 48.2304 22.0121Z" fill="#89CE60"/>
<path d="M46.7092 72.6073C48.4613 72.6073 49.8817 71.1869 49.8817 69.4348C49.8817 67.6826 48.4613 66.2622 46.7092 66.2622C44.9571 66.2622 43.5367 67.6826 43.5367 69.4348C43.5367 71.1869 44.9571 72.6073 46.7092 72.6073Z" fill="#89CE60"/>
<path fill-rule="evenodd" clip-rule="evenodd" d="M49.234 22.7894C47.5634 22.7894 46.0087 21.7219 45.4706 20.0477C44.8041 17.9743 45.949 15.7444 48.0224 15.0796C50.1045 14.4078 52.3222 15.5597 52.9887 17.6314C53.314 18.6355 53.2243 19.7065 52.7407 20.6456C52.2606 21.583 51.4411 22.2776 50.4369 22.5977C50.0377 22.7278 49.6315 22.7894 49.234 22.7894ZM49.2288 16.4461C48.9878 16.4461 48.7416 16.483 48.4989 16.5604C47.2415 16.9631 46.5469 18.3155 46.9496 19.5729C47.3541 20.8285 48.7135 21.5179 49.9621 21.1204L49.9639 21.1187C50.5723 20.9252 51.0683 20.5032 51.362 19.9351C51.6539 19.3653 51.7066 18.7182 51.5114 18.1097C51.1843 17.0932 50.2417 16.4461 49.2288 16.4461ZM37.6676 41.7857C38.9989 42.5243 40.4673 42.9007 41.9445 42.9007C43.0542 42.9007 44.1657 42.6879 45.2296 42.2623C47.7542 41.2479 49.1328 39.179 50.4672 37.1765L50.4685 37.1746C51.2493 36.0016 51.9862 34.8955 52.9411 33.981C56.3651 30.7029 61.5372 31.2551 63.6018 31.642C65.4114 31.9867 67.265 31.577 68.8091 30.4919C70.9071 29.0182 72.0027 26.4365 71.6017 23.9129C71.2623 21.7991 70.0207 19.993 68.1953 18.9589C66.3681 17.9266 64.2068 17.7789 62.2653 18.5597C61.0747 19.0363 60.0477 19.8418 59.2932 20.8899C57.8811 22.856 56.3898 24.2664 54.7331 25.1967C54.1792 25.5062 53.6041 25.7647 53.022 25.967C50.1643 26.9606 47.4842 26.5561 44.338 25.6399C41.883 24.9294 39.333 25.3058 37.1453 26.7056C34.2172 28.5803 32.6538 32.1257 33.2552 35.5321C33.7265 38.2104 35.3357 40.4896 37.6676 41.7857ZM37.9824 28.0158C39.1941 27.242 40.5394 26.8445 41.9006 26.8445C42.5688 26.8445 43.2424 26.9395 43.9054 27.1312C46.8739 27.9911 50.0939 28.6243 53.532 27.4337C54.2003 27.2016 54.8598 26.9043 55.4911 26.5508L55.4929 26.5491C57.3535 25.5045 59.0083 23.9499 60.5559 21.7956C61.1362 20.9884 61.9276 20.3676 62.8438 20C64.3475 19.3951 66.0146 19.5094 67.4286 20.3078C68.8407 21.108 69.8027 22.5096 70.0647 24.1556C70.3689 26.0655 69.5037 28.1002 67.9139 29.2187C66.7146 30.061 65.2866 30.3776 63.8885 30.1138C59.0206 29.1993 54.6417 30.1965 51.8649 32.8572C50.7886 33.8913 49.9673 35.1206 49.1724 36.3129C47.9168 38.2034 46.7279 39.9849 44.6475 40.8202C42.6128 41.638 40.3442 41.492 38.422 40.428C36.5016 39.3588 35.1774 37.4771 34.7852 35.263C34.2911 32.4668 35.5766 29.5563 37.9824 28.0158ZM26.4021 54.9858C27.6736 56.7972 29.7698 57.8611 31.9382 57.8611C32.2864 57.8611 32.6346 57.8348 32.9846 57.7803C35.1002 57.4409 36.9063 56.1993 37.9403 54.3738C38.9744 52.5484 39.1186 50.3871 38.3378 48.4438C37.8612 47.2532 37.054 46.2244 36.0059 45.4735C34.038 44.0631 32.6293 42.5718 31.7008 40.9117H31.699C31.3913 40.3665 31.1328 39.7914 30.9288 39.2006C29.9369 36.3463 30.3414 33.6644 31.2541 30.5165C31.9663 28.065 31.5865 25.5115 30.1884 23.3238C28.3137 20.3957 24.7701 18.8271 21.3619 19.4355C18.6836 19.9086 16.4044 21.516 15.1101 23.8461C13.814 26.1763 13.6399 28.9355 14.6317 31.4081C15.6447 33.9318 17.7163 35.3123 19.7194 36.6471L19.7261 36.6516C20.8966 37.4307 22.002 38.1666 22.9148 39.1196C26.1928 42.5454 25.6406 47.7157 25.2502 49.7786C24.9073 51.5917 25.317 53.4418 26.4021 54.9858ZM21.631 20.9673C22.0284 20.8969 22.4294 20.8617 22.8286 20.8617C25.2291 20.8617 27.5575 22.0998 28.88 24.1627C30.0319 25.967 30.3449 28.0685 29.7593 30.0839C28.8993 33.056 28.2662 36.2795 29.4586 39.7105C29.6925 40.3894 29.9914 41.0488 30.3414 41.6731C31.386 43.5338 32.9406 45.1886 35.0984 46.7362C35.9056 47.3148 36.5264 48.1044 36.894 49.0224C37.4972 50.5225 37.3846 52.1932 36.5862 53.6053C35.786 55.0192 34.3844 55.9812 32.7366 56.2432C30.8391 56.551 28.7938 55.684 27.6753 54.0925C26.8329 52.8949 26.5164 51.4651 26.7784 50.067C27.6964 45.2062 26.6975 40.8255 24.0385 38.0469C23.0045 36.9689 21.7734 36.1476 20.5811 35.3545L20.5787 35.3529C18.6891 34.0943 16.907 32.9074 16.0738 30.8296C15.2578 28.7913 15.4002 26.5227 16.4677 24.6023C17.5352 22.6837 19.4151 21.3577 21.631 20.9673ZM32.5131 74.4486C31.9609 74.4486 31.4034 74.3817 30.853 74.2446C28.8183 73.7416 27.1353 72.3347 26.2401 70.3897C25.1709 68.0701 25.5314 65.288 27.1564 63.3025C28.3505 61.8429 30.0211 60.9495 31.8606 60.7894C33.9516 60.6083 39.0797 59.7483 41.4961 55.6684C42.1695 54.5325 42.581 53.2666 43.017 51.9251L43.0173 51.9243L43.0181 51.9218C43.7635 49.6346 44.534 47.2704 46.691 45.6144C48.8066 43.9912 51.5061 43.4179 54.1018 44.0369C56.6957 44.656 58.8588 46.4181 60.0371 48.8678C61.5319 51.9858 60.9797 55.8249 58.6671 58.4188C56.9402 60.3533 54.5889 61.4208 52.0301 61.3821C48.7363 61.3715 46.0579 61.6828 43.58 63.4062C43.0683 63.7615 42.5846 64.1677 42.1415 64.6109C40.7926 65.9562 39.7357 67.7166 38.9091 69.9887C38.4677 71.1987 37.6957 72.252 36.6775 73.0329C35.4588 73.9614 34.0009 74.4486 32.5131 74.4486ZM52.0407 45.3453C50.465 45.3453 48.9191 45.8623 47.6371 46.8472C45.8626 48.2057 45.1987 50.2404 44.4968 52.3919L44.4927 52.4044L44.4874 52.4209C44.0459 53.7769 43.5893 55.1794 42.8326 56.4597C40.8718 59.7712 36.9219 61.9132 31.9925 62.3388C30.5751 62.4601 29.2843 63.153 28.3575 64.2855C27.1265 65.7909 26.8433 67.9839 27.6523 69.7408C28.3487 71.2549 29.6536 72.3453 31.2275 72.7357C32.8068 73.1261 34.444 72.7814 35.7278 71.7983C36.5122 71.1969 37.1066 70.3862 37.446 69.4559C38.3534 66.9639 39.5282 65.0207 41.0406 63.51C41.5506 63 42.1063 62.5357 42.6919 62.1295C45.6745 60.0543 48.9385 59.7976 52.0442 59.8257H52.1163C54.1844 59.8257 56.0978 58.9605 57.5065 57.3813C59.4075 55.2498 59.8612 52.0984 58.6337 49.5396C57.6595 47.5137 55.878 46.0593 53.7413 45.5458C53.175 45.4122 52.6052 45.3453 52.0407 45.3453ZM12.5089 46.5008C13.0471 48.175 14.5999 49.2407 16.2706 49.2407C16.6698 49.2407 17.0743 49.1809 17.4753 49.0508C18.4794 48.7307 19.3007 48.0361 19.7808 47.097C20.2644 46.1596 20.3523 45.0886 20.0288 44.0844C19.3622 42.011 17.1306 40.8627 15.0624 41.5327C14.0583 41.8528 13.2388 42.5492 12.7569 43.4865C12.2733 44.4256 12.1854 45.4966 12.5089 46.5008ZM15.5355 43.0135C15.7782 42.9361 16.0227 42.8992 16.2653 42.8992C17.2783 42.8992 18.2227 43.5463 18.548 44.5611C18.7432 45.1713 18.6905 45.8185 18.3985 46.3883C18.1048 46.9563 17.6089 47.3783 17.0004 47.5718L16.9987 47.5735C15.7501 47.971 14.3906 47.2816 13.9879 46.0242C13.5834 44.7686 14.2781 43.4162 15.5355 43.0135ZM45.9051 72.9466C46.4713 73.2386 47.0851 73.3863 47.7059 73.3863C48.1103 73.3863 48.5201 73.323 48.9193 73.1928C50.9909 72.5281 52.1358 70.3017 51.471 68.2265C50.8063 66.1549 48.5799 65.0065 46.503 65.6765C44.4313 66.3413 43.2865 68.5677 43.9512 70.6429C44.2713 71.647 44.9677 72.4665 45.9051 72.9466ZM46.9778 67.152C47.2205 67.0764 47.4649 67.0395 47.7076 67.0395C48.7206 67.0395 49.665 67.6884 49.9903 68.7013C50.393 69.9588 49.6984 71.3111 48.4409 71.7156C47.1923 72.1131 45.8329 71.4237 45.4302 70.1663C45.0275 68.9089 45.7204 67.5565 46.9778 67.152Z" fill="#4FAB1A"/>
</svg>
