<svg width="84" height="85" viewBox="0 0 84 85" fill="none" xmlns="http://www.w3.org/2000/svg">
<path d="M41.9991 85.0001C18.8417 85.0001 0 66.1583 0 42.9992C0 19.8401 18.8417 0.998291 41.9991 0.998291C65.1583 0.998291 84 19.8401 84 42.9992C84 66.1583 65.1583 85.0001 41.9991 85.0001ZM41.9991 2.55291C19.6964 2.55291 1.55285 20.6965 1.55285 42.9992C1.55285 65.3019 19.6964 83.4437 41.9991 83.4437C64.3018 83.4437 82.4454 65.3019 82.4454 42.9992C82.4454 20.6965 64.3001 2.55291 41.9991 2.55291Z" fill="#E27B07"/>
<path d="M24.7671 61.0013C23.0001 68.9984 18.3083 63.0654 16.5001 60.4984C14.6918 57.9314 11.0001 51.7058 18.219 51.7058" fill="#FF9F31"/>
<path d="M22.0809 65.6856C20.0431 65.687 17.3989 63.9378 15.3584 61.0413C12.706 57.2767 12.2222 53.2053 14.2573 51.7711C15.36 50.9946 16.9907 51.1438 18.7302 52.1779L17.9997 53.4045C16.7843 52.6809 15.6915 52.5055 15.0796 52.9376C13.9158 53.7586 14.2225 56.9505 16.525 60.219C18.829 63.489 21.7294 64.8493 22.8948 64.0312C23.5318 63.5838 23.724 62.4466 23.4104 60.9871L24.807 60.6887C25.2502 62.7544 24.8531 64.3991 23.7169 65.1993C23.2476 65.5295 22.6915 65.6856 22.0809 65.6856Z" fill="#E27B07"/>
<path d="M57.1559 45.9987C57.5341 45.5574 57.6662 45.1769 57.3994 44.9185C56.0612 43.6228 52.4778 45.2749 51.0691 45.9184C49.3384 46.7094 47.6001 47.5701 45.7475 48.08C42.6978 48.9194 39.559 48.1249 36.6097 47.5183C35.8305 47.3582 39.2506 49.2477 38.8223 49.8825C38.7 50.0639 38.6094 50.277 38.6549 50.4786C38.6943 50.6527 38.829 50.7924 38.9706 50.9126C39.711 51.5402 40.738 51.8297 41.7593 51.9694C44.7801 52.3824 47.9422 51.4747 50.6758 50.2099C51.4399 49.8566 55.8239 47.5524 57.1559 45.9987Z" fill="#FF9F31"/>
<path d="M43.2855 52.7843C42.7307 52.7843 42.1899 52.748 41.6617 52.6755C40.2874 52.4886 39.2545 52.0886 38.5088 51.4572C38.3136 51.2913 38.0461 51.0264 37.9582 50.6349C37.9123 50.43 37.9024 50.1233 38.0738 49.7567C37.7978 49.4431 37.0772 48.912 36.7427 48.6667C36.0207 48.1342 35.5859 47.8137 35.8437 47.2324L36.0779 46.7084L37.5052 46.9759C40.1729 47.5349 42.9342 48.1134 45.5589 47.3914C47.0991 46.9677 48.6002 46.2734 50.0526 45.6003L50.772 45.2686C53.487 44.0323 56.4213 42.9757 57.8957 44.4057C58.1537 44.6551 58.6483 45.3549 57.6979 46.463C56.2302 48.1746 51.5846 50.5762 50.9753 50.8577C48.2071 52.1389 45.6283 52.7843 43.2855 52.7843ZM39.0844 48.7505C39.5486 49.2524 39.7632 49.7625 39.4133 50.2809C39.9639 50.8189 40.7569 51.1117 41.8552 51.2623C44.3446 51.5967 47.2063 51.0295 50.3756 49.5618C51.1897 49.187 55.4088 46.94 56.613 45.5352C56.6883 45.4474 56.737 45.379 56.7705 45.3274C56.0248 44.8548 54.224 45.2648 51.4057 46.5484L50.6516 46.8968C49.1476 47.5924 47.5908 48.3129 45.9375 48.7687C43.6284 49.4028 41.3326 49.1687 39.0844 48.7505Z" fill="#E27B07"/>
<path d="M66.1282 54.425C66.2743 54.3753 66.417 54.3193 66.5561 54.2555C66.8428 54.124 67.097 53.8819 67.1585 53.5746C67.2271 53.2337 67.0198 52.9074 66.7809 52.654C66.0388 51.8663 64.0455 51.5526 61.5822 51.5815C59.3068 51.6081 57.0451 51.7323 54.7651 51.7472C50.8826 51.7722 44.4111 50.532 40.2698 48.8743C38.9769 48.3568 39.5439 50.006 40.0517 52.1806C40.2121 52.8671 40.7187 53.4263 41.2882 53.8462C42.6472 54.8485 44.3778 55.1973 46.0579 55.4228C48.9726 55.8138 51.9195 55.9132 54.8603 56.012C56.1258 56.0546 57.4437 56.1544 58.7035 56.0796C59.8801 56.0097 60.8949 55.4253 62.0121 55.1381C63.3121 54.804 64.8415 54.863 66.1282 54.425Z" fill="#FF9F31"/>
<path d="M57.7156 56.8194C57.0618 56.8194 56.4081 56.7915 55.7671 56.7636L54.836 56.726C51.9174 56.627 48.9094 56.5267 45.9629 56.1293C44.1968 55.8924 42.357 55.5216 40.8643 54.4207C40.0559 53.824 39.5345 53.1062 39.3561 52.3439L39.1707 51.5703C38.7607 49.8935 38.514 48.88 39.1623 48.3184C39.5064 48.0229 39.9678 47.9839 40.5352 48.2125C44.4867 49.7932 50.8636 51.0587 54.7609 51.0336C55.9567 51.0252 57.1484 50.9876 58.3388 50.9486C59.4163 50.9151 60.4938 50.8804 61.5739 50.8678C64.5414 50.8385 66.4552 51.2691 67.2997 52.1654C67.8921 52.7913 67.9311 53.3529 67.8587 53.7139C67.7555 54.2198 67.3792 54.6632 66.8523 54.9044C66.6962 54.9768 66.529 55.041 66.3589 55.0995L66.3575 55.1008C65.57 55.3684 64.7324 55.4631 63.9211 55.5566C63.3036 55.6264 62.721 55.6933 62.1914 55.8299C61.8025 55.9302 61.4262 56.0682 61.0526 56.2062C60.3348 56.4695 59.5946 56.7415 58.7459 56.7915C58.4042 56.8126 58.06 56.8194 57.7156 56.8194ZM40.2105 49.6191C40.2676 50.0443 40.4295 50.7076 40.5575 51.2316L40.7471 52.0192C40.8727 52.56 41.3409 52.999 41.7117 53.2723C42.9451 54.1825 44.5745 54.503 46.1522 54.7163C49.0292 55.1025 52.0009 55.2027 54.875 55.299L55.8298 55.338C56.7748 55.3783 57.7533 55.4202 58.6607 55.3672C59.299 55.3296 59.9122 55.1052 60.5605 54.8669C60.98 54.7121 61.3996 54.5588 61.8359 54.4474C62.4603 54.2871 63.1209 54.2118 63.7592 54.138C64.5286 54.0503 65.2562 53.9679 65.8974 53.7491C66.02 53.7072 66.1399 53.6614 66.2542 53.6084C66.3864 53.5471 66.452 53.4649 66.459 53.4328C66.4577 53.4328 66.4409 53.3338 66.2626 53.1458C66.0646 52.934 65.1377 52.2468 61.5904 52.2955C60.52 52.308 59.4522 52.3416 58.3847 52.3764C57.1819 52.4154 55.9775 52.453 54.7691 52.4614C54.7299 52.4614 54.6896 52.4614 54.6493 52.4614C50.6601 52.461 44.2777 51.2024 40.2105 49.6191Z" fill="#E27B07"/>
<path d="M61.6517 59.2088C63.3202 59.4544 66.7147 59.116 68.0616 58.8782C68.9459 58.7221 71.1257 58.2587 71.0681 57.0373C70.9919 55.4154 67.5028 55.0456 66.3451 54.992C64.0401 54.8854 63.5285 54.9192 61.3121 54.8527C58.437 54.7665 55.6103 54.8363 52.7336 54.6133C48.3952 54.2771 44.1347 53.5287 40.0209 52.104C40.2865 52.3402 41.8934 53.2002 41.8007 53.5543C41.7206 53.8653 41.8878 54.1812 42.0631 54.4503C43.5132 56.6763 45.8866 58.2059 48.431 59.0191C50.9752 59.8324 53.6924 59.9805 56.3666 59.8808C58.9083 59.786 59.1296 58.8375 61.6517 59.2088Z" fill="#FF9F31"/>
<path d="M54.9588 60.6218C52.3328 60.6218 50.1626 60.3222 48.214 59.6991C45.2954 58.7667 42.8993 57.041 41.4652 54.8389C41.2659 54.5335 41.054 54.1406 41.0666 53.689C40.8422 53.4939 40.353 53.1816 40.1229 53.0354C39.8553 52.864 39.6378 52.7176 39.5471 52.6381L36.8723 50.2588L40.2551 51.4295C44.0115 52.7313 48.1122 53.5397 52.7899 53.9021C54.6423 54.0456 56.52 54.0666 58.3361 54.0861C59.3327 54.0985 60.3293 54.1098 61.3328 54.139C62.2026 54.1654 62.809 54.1767 63.3636 54.1864C64.2278 54.2004 64.9706 54.2143 66.3783 54.2799C67.6174 54.3357 71.6722 54.6994 71.7809 57.0034C71.8407 58.2815 70.631 59.1486 68.1862 59.5805C66.7351 59.8385 63.2701 60.17 61.5488 59.9149C60.2789 59.7269 59.6977 59.9051 58.9591 60.1324C58.3194 60.3275 57.5946 60.5492 56.3931 60.5939C55.8996 60.6121 55.4217 60.6218 54.9588 60.6218ZM42.5133 53.6234C42.5093 53.6596 42.502 53.6959 42.4924 53.7335C42.4938 53.7417 42.5064 53.8241 42.6612 54.0597C43.9154 55.9874 46.0425 57.5067 48.6492 58.3388C50.7776 59.0203 53.2098 59.2839 56.3403 59.1667C57.3551 59.1291 57.9586 58.945 58.5427 58.7681C59.3816 58.5103 60.1747 58.2691 61.7554 58.5018C63.3095 58.7333 66.6059 58.4113 67.9385 58.1756C69.876 57.8328 70.3667 57.303 70.3568 57.0703C70.326 56.4291 68.4736 55.8032 66.3133 55.7044C64.9251 55.6402 64.1918 55.6278 63.3389 55.6125C62.7786 55.6027 62.1682 55.593 61.2914 55.5664C60.2961 55.5357 59.3081 55.5246 58.3212 55.5135C56.4814 55.494 54.58 55.4716 52.6791 55.3239C48.9806 55.038 45.6283 54.4777 42.5133 53.6234Z" fill="#E27B07"/>
<path d="M23.4999 60.8059C25.4999 60.8059 28.6275 60.1498 30.4999 60.8059C32.4022 61.4723 35.5045 61.0484 36.9999 62.39C38.8374 64.0383 46.8047 64.32 48.9999 65.4984C51.1977 66.6779 45.2359 61.2724 47.6945 61.6772C51.0809 62.2346 54.5191 62.4445 57.9507 62.4731C59.6898 62.4875 61.4288 62.454 63.1668 62.39C64.1938 62.3522 66.3401 62.3147 66.3273 60.8059C66.3195 59.8932 65.5782 59.3976 64.7677 59.1788C62.5128 58.5697 59.9498 58.6537 57.6281 58.4765C55.0777 58.2816 52.5255 58.0624 50.0013 57.6452C48.3404 57.3706 46.7011 56.7945 45.4201 55.6821C44.9838 55.3033 44.5945 54.873 44.257 54.4053C42.7322 52.2919 41.8265 49.9922 39.6746 48.3843C37.7886 46.9747 35.3814 46.3281 33.0395 46.2748C28.0464 46.1611 21.6151 47.8765 18.207 51.7141" fill="#FF9F31"/>
<path d="M58.7974 63.1906C58.5103 63.1906 58.2259 63.1893 57.9444 63.1864C54.0709 63.1545 50.6796 62.8909 47.5783 62.3809C44.7906 61.9224 42.3307 61.1291 40.2664 60.0211C38.2077 58.9157 36.496 57.3698 34.84 55.8771L34.3091 55.3976C33.095 54.309 31.4517 52.9722 29.5115 52.2921C27.8013 51.6928 25.4486 51.5785 24.0325 52.6615L23.1654 51.5298C25.1281 50.0244 28.0647 50.2753 29.9826 50.9457C32.1626 51.7083 33.9495 53.1578 35.2624 54.3356L35.7977 54.8165C37.4618 56.3205 39.0354 57.7392 40.941 58.7638C42.8671 59.7965 45.1782 60.5396 47.8096 60.9732C50.8371 61.4708 54.1557 61.7286 57.9569 61.7592C59.5681 61.7745 61.263 61.7453 63.1405 61.677C64.4075 61.6325 65.6201 61.4972 65.613 60.8128C65.6102 60.3697 65.2631 60.0519 64.5816 59.8678C63.0289 59.4483 61.2726 59.3717 59.5734 59.2977C58.8962 59.2672 58.2256 59.2379 57.5733 59.189C55.1103 58.9994 52.4872 58.7806 49.885 58.3498C47.8512 58.0139 46.1928 57.2976 44.9521 56.2215C44.4784 55.8073 44.0488 55.3376 43.6782 54.822C43.2014 54.164 42.7846 53.4867 42.3722 52.8176C41.4772 51.3639 40.6325 49.991 39.2472 48.9554C37.622 47.7412 35.4099 47.0431 33.0222 46.9887C28.3278 46.8576 22.0625 48.4466 18.7411 52.1878L17.6733 51.24C21.3 47.1574 28.0142 45.4696 33.0556 45.5617C35.7375 45.623 38.2395 46.4216 40.1016 47.8127C41.706 49.0113 42.6619 50.5654 43.5874 52.0695C43.9819 52.7093 44.3805 53.3573 44.835 53.9874C45.1431 54.414 45.497 54.8029 45.8888 55.1444C46.9257 56.0447 48.3489 56.6498 50.1176 56.9425C52.6628 57.362 55.2512 57.5795 57.682 57.7649C58.319 57.8136 58.9741 57.8428 59.6361 57.8723C61.4119 57.9489 63.249 58.0297 64.9537 58.4911C66.2708 58.8465 67.0318 59.6884 67.0402 60.8006C67.0597 62.9666 64.4058 63.0614 63.2712 63.1019C61.6351 63.1612 60.1772 63.1906 58.7974 63.1906Z" fill="#E27B07"/>
<path d="M49.1632 66.9984C48.7395 66.9984 48.3714 66.7825 48.1625 66.6611C46.6543 65.7803 44.8996 65.4833 43.0416 65.167C41.9278 64.9788 40.7781 64.7837 39.6699 64.4506C38.52 64.1064 37.4217 63.6143 36.3595 63.139C34.8429 62.4602 33.4115 61.8203 31.8658 61.582C30.0384 61.3019 28.8006 61.136 26.9413 61.2782C25.8304 61.3603 24.725 61.7269 23.6546 62.0823L23.2059 60.7276C24.3042 60.3624 25.5489 59.95 26.8368 59.8537C28.844 59.7101 30.1569 59.8745 32.0831 60.1715C33.8185 60.4377 35.4061 61.1484 36.942 61.8356C37.9623 62.293 39.0188 62.7654 40.0794 63.0845C41.1026 63.391 42.2093 63.5793 43.2797 63.7605C45.1822 64.0838 47.1489 64.4169 48.8828 65.4288C48.8968 65.4371 48.9189 65.4497 48.9442 65.4636C48.7057 63.9583 47.1544 63.0203 46.4965 62.6843C45.8274 62.3457 45.1209 62.0919 44.3708 61.823C43.678 61.575 42.9615 61.3185 42.2716 60.9854L42.8933 59.7002C43.515 59.9999 44.1644 60.2326 44.8516 60.4793C45.6099 60.7511 46.3946 61.0328 47.1432 61.4133C48.9606 62.3373 50.1344 63.7479 50.3601 65.284C50.4687 66.0199 50.2179 66.6137 49.6895 66.8757C49.5102 66.9636 49.3318 66.9984 49.1632 66.9984Z" fill="#E27B07"/>
<path d="M23.9407 52.6817C25.6129 51.5138 27.7101 51.6646 29.5663 52.2732C30.3974 52.5458 30.7535 51.2369 29.9267 50.9657C27.7521 50.2526 25.2035 50.151 23.2563 51.5109C22.5462 52.007 23.2231 53.1829 23.9407 52.6817Z" fill="#E27B07"/>
<path d="M24.4248 60.416C21.6214 61.9685 16.3638 54.2717 18.6982 52.1853C19.3503 51.6027 18.3886 50.6464 17.7394 51.2266C14.1739 54.4131 20.8887 63.9239 25.1092 61.5867C25.8726 61.164 25.1896 59.9925 24.4248 60.416Z" fill="#E27B07"/>
<path d="M41.3261 15.848C41.1894 15.6671 40.9288 15.6673 40.7921 15.8482C39.5119 17.5451 34.3749 24.7774 34.329 31.6341C34.3168 33.4975 34.5054 35.739 35.6492 37.2399C36.7154 38.639 38.3343 39.5928 40.0716 39.7991C42.0565 40.0347 44.1575 39.3175 45.5901 37.8478C47.1662 36.2311 47.5396 33.8029 47.5726 31.6347C47.5734 31.5812 47.574 31.5277 47.5744 31.4744C47.62 24.6262 42.5914 17.5256 41.3261 15.848Z" fill="#FF9F31"/>
<path d="M40.8391 40.5573C40.5547 40.5573 40.2704 40.5421 39.9873 40.5071C38.068 40.2799 36.2799 39.2471 35.081 37.672C33.7416 35.9143 33.6036 33.3818 33.6148 31.6297C33.6622 24.6535 38.6842 17.4584 40.2216 15.4193C40.4223 15.1531 40.7275 14.9998 41.0579 14.9983C41.0579 14.9983 41.0579 14.9983 41.0593 14.9983C41.3882 14.9983 41.692 15.1502 41.8942 15.4151L41.8956 15.418C43.4065 17.4223 48.3351 24.5031 48.2877 31.4791L48.2864 31.6463C48.239 34.6932 47.5239 36.8857 46.1009 38.345C44.7224 39.7614 42.8016 40.5573 40.8391 40.5573ZM41.0595 16.6879C39.5583 18.7549 35.0841 25.437 35.0422 31.6381C35.0256 34.0579 35.4103 35.7487 36.2158 36.808C37.1834 38.0764 38.6188 38.9085 40.1549 39.091C41.9516 39.2974 43.8277 38.6352 45.0779 37.3501C46.2362 36.1626 46.8187 34.2907 46.8592 31.6243L47.5742 31.4753L46.8606 31.4711C46.9022 25.2851 42.5356 18.727 41.0595 16.6879Z" fill="#E27B07"/>
<path d="M36.8757 31.6528C36.5376 34.1135 37.6757 36.5046 40.1375 37.2673C40.9729 37.5261 41.3303 36.2178 40.498 35.96C39.3039 35.5898 38.555 34.7403 38.284 33.5315C38.2041 33.1755 38.1724 32.813 38.1726 32.4485C38.1727 32.3295 38.2316 31.6618 38.1833 32.0134C38.3004 31.1601 36.9942 30.7909 36.8757 31.6528Z" fill="#E27B07"/>
</svg>
