<svg width="84" height="85" viewBox="0 0 84 85" fill="none" xmlns="http://www.w3.org/2000/svg">
<path d="M41.9991 85.0001C18.8417 85.0001 0 66.1583 0 42.9992C0 19.8401 18.8417 0.998291 41.9991 0.998291C65.1583 0.998291 84 19.8401 84 42.9992C84 66.1583 65.1583 85.0001 41.9991 85.0001ZM41.9991 2.55291C19.6964 2.55291 1.55285 20.6965 1.55285 42.9992C1.55285 65.3019 19.6964 83.4437 41.9991 83.4437C64.3018 83.4437 82.4454 65.3019 82.4454 42.9992C82.4454 20.6965 64.3001 2.55291 41.9991 2.55291Z" fill="#B01E65"/>
<path d="M35.6832 47.4511L35.432 46.1214C35.6266 46.0847 35.8563 46.0678 36.103 46.0632L36.1306 47.4174C35.9636 47.4205 35.8104 47.4281 35.6832 47.4511Z" fill="#B01E65"/>
<path d="M35.4503 47.5339L34.2294 46.9273C34.3213 46.7312 34.4714 46.5627 34.6889 46.4141L35.4503 47.5339Z" fill="#B01E65"/>
<path d="M38.8143 47.8343C38.4942 47.7515 38.1939 47.6841 37.9059 47.6259C37.9044 47.6259 37.8998 47.6244 37.8998 47.6244L38.174 46.2993C38.4865 46.3637 38.8082 46.4341 39.1529 46.523L38.8143 47.8343Z" fill="#B01E65"/>
<path d="M35.4609 47.5293L34.839 46.3252C35.0243 46.2303 35.2143 46.1629 35.4211 46.123L35.6831 47.4512C35.6019 47.4665 35.5329 47.491 35.4609 47.5293Z" fill="#B01E65"/>
<path d="M37.693 47.5845C37.4219 47.534 37.163 47.4895 36.9255 47.462L37.0818 46.1169C37.3468 46.1491 37.6379 46.1966 37.9412 46.2518L37.693 47.5845Z" fill="#B01E65"/>
<path d="M36.901 47.4588C36.6681 47.4327 36.4598 47.422 36.2622 47.4174L36.2867 46.0632C36.5226 46.0663 36.7739 46.0801 37.0542 46.1122L36.901 47.4588Z" fill="#B01E65"/>
<path d="M38.8051 73.867C37.2625 73.867 35.6953 73.5392 34.2063 72.8453C31.5623 71.6136 29.5555 69.4276 28.5567 66.6855C27.5579 63.9434 27.6881 60.9746 28.9213 58.326L34.2278 46.9318L34.2293 46.9287L35.4563 47.5001C35.4518 48.1205 38.1004 50.5409 43.4344 53.0256C48.7746 55.5119 52.3348 55.9837 52.8326 55.5487L54.0367 56.1538L54.0352 56.1584L48.7302 67.551C46.8797 71.5248 42.9259 73.867 38.8051 73.867Z" fill="#FF49B0"/>
<path d="M38.8051 73.867C37.2625 73.867 35.6953 73.5392 34.2063 72.8453C31.5623 71.6136 29.5555 69.4276 28.5567 66.6855C27.5579 63.9434 27.6881 60.9746 28.9213 58.326L34.2278 46.9318L34.2293 46.9287L35.4563 47.5001C35.4518 48.1205 38.1004 50.5409 43.4344 53.0256C48.7746 55.5119 52.3348 55.9837 52.8326 55.5487L54.0367 56.1538L54.0352 56.1584L48.7302 67.551C46.8797 71.5248 42.9259 73.867 38.8051 73.867ZM34.7823 48.9477L30.1499 58.8959C29.0683 61.2182 28.955 63.8178 29.8297 66.2198C30.7029 68.6203 32.4615 70.5367 34.7777 71.6152C39.5649 73.8456 45.2758 71.7653 47.5047 66.9781L52.1356 57.0269C51.5167 57.0254 50.7661 56.9427 49.8669 56.7466C47.8831 56.3161 45.3953 55.4307 42.8646 54.2512C40.3385 53.0731 38.0636 51.7419 36.4567 50.5011C35.7275 49.9389 35.1714 49.4226 34.7823 48.9477Z" fill="#B01E65"/>
<path d="M52.7851 55.5933C52.7851 55.5918 52.7851 55.5918 52.7851 55.5902C52.7682 55.5152 52.7391 55.4447 52.6947 55.3712L53.8697 54.6941C53.9784 54.8856 54.0566 55.0786 54.104 55.2854V55.2869C54.104 55.2885 54.104 55.2885 54.104 55.29L52.7851 55.5933Z" fill="#B01E65"/>
<path d="M52.6688 55.3297C52.6014 55.2209 52.5156 55.1045 52.413 54.9819L53.4501 54.1088C53.6017 54.2895 53.7289 54.4626 53.8284 54.6281L52.6688 55.3297Z" fill="#B01E65"/>
<path d="M52.3286 54.8807C52.1953 54.729 52.0421 54.5713 51.8644 54.4058L52.7881 53.4147C52.9995 53.6123 53.1849 53.8038 53.3442 53.9861L52.3286 54.8807Z" fill="#B01E65"/>
<path d="M52.0561 57.0285C51.4571 57.0285 50.7294 56.9335 49.8655 56.7467C47.8817 56.3162 45.3939 55.4308 42.8632 54.2512C40.3371 53.0732 38.0622 51.7419 36.4552 50.5011C34.5296 49.0121 33.802 47.8433 34.2279 46.9272C34.3198 46.7311 34.4699 46.5626 34.6874 46.414L34.8115 46.3374C35.0229 46.2287 35.2129 46.1613 35.4182 46.1214L35.5545 46.1092C35.6234 46.0831 35.8532 46.0678 36.0983 46.0632L36.2699 46.7403L36.2821 46.0632C36.5181 46.0663 36.7693 46.0801 37.0496 46.1122C37.3407 46.1475 37.6317 46.1965 37.9351 46.2517L38.1618 46.2961C38.4804 46.3619 38.8021 46.4339 39.1483 46.5213C39.519 46.6193 39.8668 46.7204 40.2237 46.8292L40.504 46.915C40.8748 47.0314 41.2562 47.157 41.6514 47.2979L41.1964 48.5725C40.8196 48.4392 40.455 48.3182 40.0966 48.2048L39.8377 48.1267C39.4915 48.021 39.1606 47.926 38.8481 47.8418C38.4896 47.7498 38.1878 47.6824 37.8968 47.6227L37.6808 47.5798C37.4188 47.5323 37.1599 47.4879 36.9209 47.4603C36.6651 47.4297 36.4552 47.4205 36.2576 47.4159C35.9604 47.419 35.8073 47.4266 35.6786 47.4496C35.5974 47.4649 35.5285 47.4879 35.4565 47.5262C35.4488 48.1175 38.0974 50.5379 43.4315 53.0226C48.7717 55.5089 52.3318 55.9807 52.8297 55.5457C52.7653 55.5135 52.7347 55.4445 52.6918 55.3695C52.5968 55.2178 52.5126 55.1014 52.4084 54.9804C52.1909 54.7276 52.0392 54.5683 51.8615 54.4044C51.5904 54.1608 51.4004 54.0015 51.1982 53.8376L51.0557 53.7242C50.8167 53.5373 50.5579 53.3443 50.2806 53.1498L50.4797 52.465L50.0983 53.0226C49.8394 52.8465 49.5682 52.6672 49.2848 52.4865L49.4871 51.8109L49.1255 52.3838C48.8008 52.1785 48.4546 51.9717 48.0992 51.7665L48.7778 50.5946C49.1485 50.8121 49.51 51.025 49.8471 51.238L49.965 51.313C50.3097 51.5321 50.5916 51.7205 50.8627 51.9059L51.0634 52.0453C51.356 52.2521 51.6363 52.4574 51.8937 52.6596L52.0162 52.7591C52.2705 52.9614 52.4789 53.139 52.6673 53.3091L52.7837 53.4117C52.9951 53.6093 53.1805 53.8008 53.3398 53.9831L53.4302 54.0888C53.5956 54.2864 53.7228 54.4595 53.8239 54.6265C53.9755 54.8823 54.0537 55.0769 54.1011 55.2837L54.1256 55.4231C54.1593 55.7157 54.1302 55.947 54.0337 56.1523C53.7656 56.739 53.1131 57.0285 52.0561 57.0285Z" fill="#B01E65"/>
<path d="M54.0369 56.1538L52.8098 55.5794L54.1318 55.4476C54.1395 55.5166 54.1441 55.5809 54.1441 55.6437C54.1456 55.8321 54.1089 56.0006 54.0369 56.1538Z" fill="#B01E65"/>
<path d="M50.1029 53.0256C49.844 52.8495 49.5728 52.6702 49.2894 52.4895L50.0171 51.3467C50.3143 51.5366 50.5977 51.7235 50.8688 51.9104L50.1029 53.0256Z" fill="#B01E65"/>
<path d="M41.1995 48.5724C40.8226 48.4391 40.4581 48.3181 40.0996 48.2047L40.504 46.9133C40.8778 47.0298 41.2593 47.1554 41.6545 47.2963L41.1995 48.5724Z" fill="#B01E65"/>
<path d="M49.1302 52.3868C49.1302 52.3853 49.1302 52.3868 49.1302 52.3868C49.1271 52.3853 49.1271 52.3838 49.1271 52.3838C48.7993 52.1785 48.4562 51.9732 48.1023 51.768L48.7809 50.5961C49.1501 50.8121 49.5116 51.025 49.8471 51.2379H49.8487C49.8487 51.2379 49.8486 51.2395 49.8502 51.2395L49.1302 52.3868Z" fill="#B01E65"/>
<path d="M51.0602 53.726C50.8212 53.5391 50.5623 53.3461 50.285 53.1515L51.0633 52.0439C51.3604 52.2538 51.6408 52.4591 51.8981 52.6628L51.0602 53.726Z" fill="#B01E65"/>
<path d="M39.8299 48.1253C39.4929 48.0226 39.162 47.9277 38.8511 47.8434L39.1942 46.5352C39.5251 46.6209 39.8713 46.722 40.2267 46.8308L39.8299 48.1253Z" fill="#B01E65"/>
<path d="M51.7648 54.317C51.5948 54.1623 51.4048 54.0045 51.2026 53.8391L52.0498 52.7852C52.275 52.9644 52.4833 53.1405 52.6717 53.3121C52.6733 53.3137 52.6733 53.3136 52.6748 53.3152L51.7648 54.317Z" fill="#B01E65"/>
<path d="M40.3018 47.5615C40.6663 47.6764 41.0401 47.799 41.4262 47.9368L40.3018 47.5615Z" fill="#FF49B0"/>
<path d="M40.1255 48.2002C40.5024 48.3197 40.8777 48.4453 41.2499 48.5755C42.0572 48.8589 42.4034 47.5767 41.6023 47.2964C41.2285 47.1662 40.8547 47.0406 40.4779 46.9211C39.6629 46.6622 39.3136 47.9428 40.1255 48.2002Z" fill="#B01E65"/>
<path d="M48.4408 51.1827C48.8054 51.3941 49.1577 51.604 49.4917 51.8139L48.4408 51.1827Z" fill="#FF49B0"/>
<path d="M48.1067 51.7558C48.4575 51.9611 48.8083 52.1709 49.156 52.3854C49.8837 52.8373 50.55 51.6899 49.827 51.2395C49.4792 51.0236 49.13 50.8137 48.7761 50.6084C48.0362 50.1795 47.3683 51.3253 48.1067 51.7558Z" fill="#B01E65"/>
<path d="M52.6917 32.5474L51.6362 31.7018C51.7358 31.5746 51.8262 31.4552 51.889 31.3418L53.0762 31.9898C52.9828 32.1629 52.848 32.3544 52.6917 32.5474Z" fill="#B01E65"/>
<path d="M53.3184 31.2378L51.9734 31.103L53.2158 30.5469C53.2924 30.7031 53.3291 30.8747 53.3291 31.0693C53.3291 31.1229 53.3261 31.1796 53.3184 31.2378Z" fill="#B01E65"/>
<path d="M50.4015 34.6094L49.6034 33.5172C49.8715 33.3211 50.115 33.1312 50.3464 32.9427L51.1966 33.9982C50.9499 34.1974 50.691 34.4011 50.4015 34.6094Z" fill="#B01E65"/>
<path d="M53.081 31.9837L51.8922 31.3388C51.929 31.2683 51.9535 31.2009 51.9719 31.1198L53.2954 31.4031C53.2525 31.61 53.1821 31.7984 53.081 31.9837Z" fill="#B01E65"/>
<path d="M51.3819 33.8464L50.5149 32.8062C50.7263 32.6301 50.9239 32.4569 51.097 32.2915L52.0315 33.2704C51.8385 33.4542 51.6163 33.6488 51.3819 33.8464Z" fill="#B01E65"/>
<path d="M52.0513 33.2507L51.1123 32.2748C51.2777 32.114 51.4202 31.9608 51.5474 31.8107L52.5783 32.6854C52.4251 32.8662 52.2551 33.0546 52.0513 33.2507Z" fill="#B01E65"/>
<path d="M33.5093 39.9878L28.0788 28.6487C26.818 26.0139 26.6557 23.0466 27.6269 20.2922C28.595 17.5394 30.5819 15.3289 33.2167 14.0682C38.6442 11.467 45.1839 13.7725 47.7881 19.2107L53.2156 30.5437C53.2156 30.5467 53.2156 30.5467 53.2171 30.5483L51.9962 31.1335C51.5229 30.7367 47.9719 31.2438 42.6593 33.7852C37.3452 36.3281 34.718 38.7807 34.741 39.4394L33.5093 39.9878Z" fill="#FF49B0"/>
<path d="M33.5093 39.9878L28.0788 28.6487C26.818 26.0139 26.6557 23.0466 27.6269 20.2922C28.595 17.5394 30.5819 15.3289 33.2167 14.0682C38.6442 11.467 45.1839 13.7725 47.7881 19.2107L53.2156 30.5437C53.2156 30.5467 53.2156 30.5467 53.2171 30.5483L51.9962 31.1335C51.5229 30.7367 47.9719 31.2438 42.6593 33.7852C37.3452 36.3281 34.718 38.7807 34.741 39.4394L33.5093 39.9878ZM37.9135 14.3531C36.5318 14.3531 35.1286 14.6549 33.8004 15.2906C31.4918 16.3966 29.7516 18.333 28.9029 20.7457C28.0527 23.1569 28.1952 25.7565 29.2997 28.0666L34.0394 37.9642C34.4223 37.4847 34.9754 36.9608 35.6984 36.3894C37.2931 35.1286 39.5588 33.7714 42.0757 32.5658C44.5895 31.3632 47.0635 30.4518 49.0412 29.9999C49.9297 29.7976 50.6742 29.695 51.287 29.695C51.2931 29.695 51.3007 29.695 51.3069 29.695L46.5657 19.7974C44.9219 16.3629 41.4859 14.3531 37.9135 14.3531Z" fill="#B01E65"/>
<path d="M34.7394 40.7829C34.5219 40.7461 34.3243 40.6833 34.1359 40.5899C34.1359 40.5883 34.1343 40.5883 34.1328 40.5883L34.7394 39.3766C34.8053 39.4088 34.8804 39.4333 34.9677 39.4501C34.9708 39.4501 34.9723 39.4501 34.9723 39.4501L34.7394 40.7829Z" fill="#B01E65"/>
<path d="M35.4166 40.8319C35.199 40.8319 34.9984 40.8196 34.8207 40.7951L35.0122 39.4547C35.1408 39.4731 35.2879 39.4792 35.4487 39.4792L35.4564 40.8334C35.4441 40.8319 35.4304 40.8319 35.4166 40.8319Z" fill="#B01E65"/>
<path d="M35.6232 40.8304L35.5757 39.4762C35.7779 39.4701 35.9969 39.4502 36.2374 39.4196L36.4197 40.76C36.1287 40.7998 35.8667 40.8212 35.6232 40.8304Z" fill="#B01E65"/>
<path d="M35.4135 40.8318C35.199 40.8318 34.9984 40.8196 34.8207 40.795C34.5158 40.746 34.3197 40.6832 34.1313 40.5898L33.9965 40.5117C33.7667 40.3661 33.6059 40.1961 33.5078 39.9908C33.0712 39.0763 33.7882 37.8998 35.6969 36.3893C37.2916 35.1286 39.5573 33.7713 42.0742 32.5657C44.588 31.3632 47.062 30.4517 49.0397 29.9998C51.4126 29.4621 52.7791 29.6383 53.2156 30.5513C53.3122 30.7474 53.3458 30.9726 53.3167 31.2391L53.2922 31.4C53.2494 31.6098 53.1789 31.7998 53.0778 31.9836L53.0196 32.0816C52.9261 32.2379 52.8143 32.3926 52.6887 32.5489L52.5784 32.6837C52.4221 32.8675 52.2521 33.0544 52.0483 33.2505C51.8339 33.4542 51.6133 33.6488 51.3774 33.8464L51.1935 33.998C50.9469 34.1957 50.685 34.3994 50.3985 34.6093C50.089 34.8345 49.7903 35.0382 49.4794 35.245L49.2419 35.4028C48.9064 35.6219 48.5679 35.8348 48.2094 36.0493L47.5139 34.8881C47.8586 34.6813 48.1834 34.4745 48.4974 34.2723L48.7349 34.1145C49.0229 33.923 49.3047 33.73 49.5667 33.54C49.8669 33.3225 50.1105 33.131 50.3433 32.9441L50.9438 33.3271L50.5103 32.8078C50.7217 32.6316 50.9193 32.4585 51.0924 32.293C51.2747 32.1153 51.4172 31.9622 51.5443 31.8136L51.6332 31.7048C51.7328 31.5777 51.8232 31.4582 51.886 31.3448L51.9059 31.308C51.9365 31.2483 51.9534 31.1901 51.9687 31.1227C51.5214 30.7428 47.9674 31.2483 42.6578 33.7897C37.3437 36.3326 34.7165 38.7852 34.7395 39.4439C34.8084 39.4133 34.8804 39.4363 34.9693 39.4531C35.1393 39.4746 35.2741 39.4837 35.4472 39.4807C35.7766 39.473 35.9956 39.4531 36.2361 39.4225L36.469 40.0705L36.374 39.3995C36.5992 39.3673 36.8412 39.3244 37.0955 39.2708L37.4188 39.8943L37.2748 39.2325C37.5704 39.1682 37.8829 39.0885 38.2077 38.9982L38.3471 38.9568C38.7239 38.8496 39.0334 38.7546 39.3535 38.6504L39.5297 38.5937C39.8989 38.4712 40.2773 38.3364 40.6633 38.1924L41.1397 39.4592C40.7384 39.6124 40.3431 39.7518 39.9632 39.879L39.8085 39.9296C39.4393 40.0506 39.1146 40.1486 38.7975 40.239L38.5677 40.3049C38.2184 40.4014 37.8829 40.4856 37.5628 40.5561V40.5576L37.3759 40.5959C37.0909 40.6557 36.8213 40.7047 36.5655 40.7415L36.4062 40.7659C36.1274 40.8042 35.8654 40.8257 35.6218 40.8349L35.4518 40.8364C35.4395 40.8318 35.4258 40.8318 35.4135 40.8318Z" fill="#B01E65"/>
<path d="M33.9967 40.5103C33.7684 40.3648 33.6076 40.1947 33.5095 39.9894L34.7304 39.4027L33.9967 40.5103Z" fill="#B01E65"/>
<path d="M38.799 40.2362L38.4268 38.934C38.727 38.8483 39.0365 38.7533 39.3566 38.6476L39.7764 39.9359C39.4409 40.0462 39.1161 40.1442 38.799 40.2362Z" fill="#B01E65"/>
<path d="M48.2139 36.0495L47.5184 34.8883C47.8631 34.6815 48.1879 34.4747 48.5019 34.2725L49.2403 35.4076C48.9125 35.6205 48.5724 35.8335 48.2139 36.0495Z" fill="#B01E65"/>
<path d="M39.9648 39.876L39.5359 38.5907C39.9005 38.4697 40.2789 38.3349 40.6649 38.1909L41.1413 39.4578C40.74 39.6079 40.3447 39.7489 39.9648 39.876Z" fill="#B01E65"/>
<path d="M37.5644 40.5532L37.2764 39.2312C37.572 39.1669 37.8845 39.0872 38.2093 38.9968L38.5708 40.3005C38.22 40.397 37.8845 40.4828 37.5644 40.5532Z" fill="#B01E65"/>
<path d="M49.4855 35.2451L48.7349 34.1192C49.0275 33.9231 49.3109 33.7301 49.5728 33.5402L50.3709 34.6355C50.0937 34.8346 49.7949 35.0383 49.4855 35.2451Z" fill="#B01E65"/>
<path d="M36.5654 40.737L36.3739 39.3966C36.5991 39.3645 36.8411 39.3216 37.0954 39.2679L37.3758 40.593C37.0908 40.6513 36.8212 40.7003 36.5654 40.737Z" fill="#B01E65"/>
<path d="M48.8711 34.8392C48.5494 35.0476 48.217 35.2574 47.8662 35.4704L48.8711 34.8392Z" fill="#FF49B0"/>
<path d="M48.5357 34.2664C48.2032 34.4808 47.8678 34.6907 47.5308 34.8975C46.8016 35.3402 47.4679 36.4876 48.2017 36.0434C48.5403 35.8381 48.8742 35.6282 49.2051 35.4137C49.9205 34.948 49.2556 33.7991 48.5357 34.2664Z" fill="#B01E65"/>
<path d="M40.9022 38.8237C40.5085 38.9708 40.1209 39.1102 39.7487 39.2343L40.9022 38.8237Z" fill="#FF49B0"/>
<path d="M40.726 38.1834C40.343 38.3243 39.9601 38.4622 39.5725 38.5939C38.7683 38.8666 39.1129 40.1488 39.9248 39.8731C40.3109 39.7429 40.6954 39.605 41.0784 39.4625C41.8734 39.1684 41.5303 37.8862 40.726 38.1834Z" fill="#B01E65"/>
<path d="M53.09 44.4472C54.3227 44.4472 55.322 43.4479 55.322 42.2152C55.322 40.9826 54.3227 39.9833 53.09 39.9833C51.8573 39.9833 50.858 40.9826 50.858 42.2152C50.858 43.4479 51.8573 44.4472 53.09 44.4472Z" fill="#FF49B0"/>
<path d="M53.093 45.1227C51.8614 45.1227 50.7155 44.3353 50.3188 43.1021C49.8301 41.5764 50.6711 39.9357 52.1999 39.444C53.7288 38.9476 55.3679 39.7963 55.8596 41.3267C56.0971 42.065 56.0312 42.854 55.6773 43.5433C55.3235 44.2357 54.7199 44.7474 53.98 44.9848C53.6843 45.0798 53.3856 45.1227 53.093 45.1227ZM53.09 40.6588C52.9307 40.6588 52.7714 40.6848 52.612 40.7338C51.7971 40.9958 51.3467 41.872 51.6086 42.687C51.8706 43.505 52.7484 43.9554 53.5649 43.6934C53.9601 43.5663 54.2818 43.2936 54.4717 42.9244C54.6602 42.5552 54.6954 42.1355 54.5698 41.7403C54.4411 41.3435 54.1684 41.0218 53.7977 40.8303C53.5771 40.717 53.3351 40.6588 53.09 40.6588Z" fill="#B01E65"/>
<path d="M35.6003 54.1732C35.6003 54.1732 31.3126 61.1112 32.8659 65.0895L35.6003 54.1732Z" fill="#FF49B0"/>
<path d="M35.0275 53.8377C33.0866 57.0133 30.9803 61.5201 32.2257 65.2656C32.4938 66.0714 33.776 65.7267 33.5048 64.9148C32.3789 61.5263 34.4194 57.3764 36.1718 54.5071C36.6192 53.7764 35.4718 53.11 35.0275 53.8377Z" fill="#B01E65"/>
<path d="M45.6344 41.4644C46.8671 41.4644 47.8664 40.4651 47.8664 39.2325C47.8664 37.9998 46.8671 37.0005 45.6344 37.0005C44.4018 37.0005 43.4025 37.9998 43.4025 39.2325C43.4025 40.4651 44.4018 41.4644 45.6344 41.4644Z" fill="#FF49B0"/>
<path d="M45.6405 42.1431C45.3555 42.1431 45.0721 42.1018 44.7949 42.0175C43.2599 41.5549 42.3868 39.9295 42.8494 38.3931C43.073 37.6501 43.574 37.0373 44.2587 36.6697C44.9404 36.3036 45.7278 36.2239 46.4723 36.446C47.2168 36.6697 47.8296 37.1721 48.1957 37.8554C48.5633 38.5401 48.643 39.326 48.4194 40.072C48.1942 40.8165 47.6932 41.4293 47.0069 41.7954C46.5795 42.0267 46.1108 42.1431 45.6405 42.1431ZM45.6328 37.6777C45.3801 37.6777 45.1304 37.7405 44.8991 37.863C44.5329 38.0606 44.2648 38.3869 44.1454 38.7852C44.0259 39.1835 44.0672 39.6048 44.2633 39.9678C44.4594 40.334 44.7872 40.6021 45.1871 40.7215C45.5853 40.8426 46.0035 40.8012 46.3681 40.6036C46.7343 40.406 47.0024 40.0797 47.1218 39.6814C47.2413 39.2831 47.2015 38.8618 47.0039 38.4972C46.8078 38.1311 46.48 37.863 46.0817 37.7435C45.9346 37.6991 45.7845 37.6777 45.6328 37.6777Z" fill="#B01E65"/>
<path d="M46.6392 48.9726C47.8719 48.9726 48.8712 47.9733 48.8712 46.7406C48.8712 45.508 47.8719 44.5087 46.6392 44.5087C45.4065 44.5087 44.4072 45.508 44.4072 46.7406C44.4072 47.9733 45.4065 48.9726 46.6392 48.9726Z" fill="#FF49B0"/>
<path d="M46.6361 49.6494C46.3573 49.6494 46.077 49.6096 45.7982 49.5254C45.0552 49.3017 44.4425 48.8008 44.0748 48.116C43.7071 47.4313 43.6275 46.6454 43.8527 45.9009C44.0763 45.1579 44.5773 44.5467 45.262 44.1775C45.9452 43.8099 46.7326 43.7287 47.4756 43.9554C49.0105 44.418 49.8837 46.0434 49.4211 47.5799C49.0442 48.836 47.8861 49.6494 46.6361 49.6494ZM46.1888 48.2294C47.0068 48.4776 47.88 48.0088 48.1266 47.1877C48.2461 46.7894 48.2048 46.3697 48.0087 46.0051C47.8126 45.6389 47.4848 45.3709 47.0865 45.2514C46.6897 45.1304 46.2685 45.1748 45.9039 45.3709C45.5378 45.5654 45.2697 45.8948 45.1502 46.2931C45.0307 46.6898 45.0721 47.1096 45.2681 47.4757C45.4657 47.8418 45.7905 48.1099 46.1888 48.2294Z" fill="#B01E65"/>
</svg>
