<svg width="84" height="85" viewBox="0 0 84 85" fill="none" xmlns="http://www.w3.org/2000/svg">
<path d="M41.9991 85.0001C18.8417 85.0001 0 66.1583 0 42.9992C0 19.8401 18.8417 0.998291 41.9991 0.998291C65.1583 0.998291 84 19.8401 84 42.9992C84 66.1583 65.1583 85.0001 41.9991 85.0001ZM41.9991 2.55291C19.6964 2.55291 1.55285 20.6965 1.55285 42.9992C1.55285 65.3019 19.6964 83.4437 41.9991 83.4437C64.3018 83.4437 82.4454 65.3019 82.4454 42.9992C82.4454 20.6965 64.3001 2.55291 41.9991 2.55291Z" fill="#D8AA06"/>
<path fill-rule="evenodd" clip-rule="evenodd" d="M57.1975 22.8991L62.6092 21.6635C62.9939 21.5762 63.3387 21.9165 63.2588 22.2998L57.2078 51.359C57.207 51.364 57.2043 51.3685 57.2016 51.3731C57.1995 51.3767 57.1973 51.3803 57.196 51.3842C57.1443 51.5809 56.9937 51.7227 56.8144 51.7717C56.772 51.9861 56.6209 52.175 56.397 52.2542L24.0304 63.4387L21.5028 64.3118C20.9997 64.4849 20.5173 64.0054 20.6889 63.5023L24.0304 53.6881L32.415 29.0551C32.4932 28.825 32.6916 28.6671 32.9197 28.631C32.99 28.4981 33.1155 28.3937 33.2777 28.3567L57.1975 22.8991Z" fill="#FFDD00"/>
<path fill-rule="evenodd" clip-rule="evenodd" d="M57.3341 52.2503C57.556 52.1036 57.7223 51.8876 57.8059 51.6429L63.9013 22.4387C63.9841 22.0391 63.8583 21.6292 63.5683 21.3421C63.2783 21.058 62.8654 20.9367 62.4658 21.0284L33.1343 27.7202C32.8941 27.7733 32.6813 27.8973 32.5196 28.0732C32.1906 28.2121 31.9196 28.4832 31.7951 28.8448L20.069 63.2906C19.9107 63.7597 20.029 64.2702 20.3812 64.6209C20.6284 64.8681 20.9539 64.9983 21.2899 64.9983C21.4319 64.9983 21.574 64.9761 21.7175 64.9272L56.6117 52.8712C56.9234 52.7624 57.1816 52.5395 57.3341 52.2503ZM56.828 49.9906L62.1392 24.4735C59.7366 28.0673 55.424 34.6905 52.0186 39.9397L56.828 49.9906ZM35.5498 28.509L60.2789 22.8681L47.861 31.4758C47.6995 31.3305 47.5016 31.2273 47.2814 31.177L35.5498 28.509ZM60.8291 24.0753L48.5127 32.613L51.3553 38.5536C54.5816 33.5821 58.4877 27.5863 60.8291 24.0753ZM50.5205 39.8405L47.4233 33.3682L39.0175 39.1951L46.355 46.2756C47.0766 45.1589 48.6352 42.748 50.5205 39.8405ZM38.2389 38.1456L46.5948 32.3535L33.8162 29.4555L38.2389 38.1456ZM33.5478 31.8089L37.1621 38.9099L34.226 41.0623L33.5478 31.8089ZM32.2215 31.611L32.9995 42.2176L22.8712 59.1157L32.2215 31.611ZM33.7928 43.3412L22.3109 62.5891L40.7958 50.2893L33.7928 43.3412ZM34.6643 42.3615L41.909 49.5486L45.4341 47.2031L37.9363 39.9618L34.6643 42.3615ZM41.9907 51.0526C45.8697 51.4014 51.5572 51.9647 54.1644 52.3303L24.8811 62.4495L41.9907 51.0526ZM43.737 49.8956L46.5367 48.0418L52.7388 50.8053C50.8522 50.5703 48.0122 50.2847 43.737 49.8956ZM55.7184 50.7026L47.4349 47.0184C48.0914 46.0027 49.4787 43.857 51.1839 41.2267L55.7184 50.7026Z" fill="#D8AA06"/>
</svg>
