<svg width="25" height="25" viewBox="0 0 25 25" fill="none" xmlns="http://www.w3.org/2000/svg">
<path d="M22.1714 20.9529L16.8186 15.6002C17.971 14.1198 18.6641 12.2634 18.6641 10.2463C18.6641 5.42377 14.7403 1.49994 9.91774 1.49994C5.09522 1.49994 1.17139 5.42377 1.17139 10.2463C1.17139 15.0688 5.09522 18.9926 9.91774 18.9926C11.936 18.9926 13.7913 18.2984 15.2716 17.1472L20.6244 22.4999L22.1714 20.9529ZM9.91884 16.8061C6.30113 16.8061 3.35908 13.864 3.35908 10.2463C3.35908 6.62858 6.30113 3.68653 9.91884 3.68653C13.5365 3.68653 16.4786 6.62858 16.4786 10.2463C16.4786 13.864 13.5365 16.8061 9.91884 16.8061Z" fill="#EF4D9C"/>
</svg>
